<?xml version="1.0" standalone="no"?>
<!DOCTYPE svg PUBLIC "-//W3C//DTD SVG 1.1//EN" "http://www.w3.org/Graphics/SVG/1.1/DTD/svg11.dtd" >
<svg xmlns="http://www.w3.org/2000/svg" xmlns:xlink="http://www.w3.org/1999/xlink" version="1.1">
<metadata></metadata>
<defs>
<font id="brittany_signatureregular" horiz-adv-x="714" >
<font-face units-per-em="2048" ascent="1638" descent="-410" />
<missing-glyph horiz-adv-x="628" />
<glyph horiz-adv-x="0" />
<glyph horiz-adv-x="0" />
<glyph horiz-adv-x="682" />
<glyph unicode="&#xa;" horiz-adv-x="0" />
<glyph unicode="&#xd;" horiz-adv-x="681" />
<glyph unicode=" "  horiz-adv-x="628" />
<glyph unicode="&#x09;" horiz-adv-x="628" />
<glyph unicode="&#xa0;" horiz-adv-x="628" />
<glyph unicode="!" horiz-adv-x="600" d="M103 -255q-5 17 7.5 36.5t30.5 23.5q45 14 56 -20q12 -37 -27 -53q-16 -6 -37 -6q-25 2 -30 19zM154 -41q39 156 94 410q86 401 172 706q6 14 20.5 22.5t29.5 4.5t23.5 -18.5t2.5 -30.5q-86 -301 -172 -703q-55 -254 -93 -409q-8 -29 -38 -29h-11q-14 4 -23 18.5t-5 28.5 z" />
<glyph unicode="&#x22;" horiz-adv-x="546" d="M102.5 901q1.5 17 16.5 27q86 63 86 106q0 12 -15 23q-14 10 -16 26.5t7 29.5t26 15t29 -8q49 -35 49 -86q0 -82 -119 -170q-10 -8 -25 -8q-18 0 -30 16q-10 12 -8.5 29zM234 855.5q2 16.5 16 27.5q47 37 81 83t34 74q0 10 -9 17q-12 10 -15 26.5t7 29.5t26.5 15t28.5 -8 q41 -29 41 -80q0 -53 -44 -114.5t-103 -106.5q-12 -8 -25 -8q-20 0 -30 16q-10 12 -8 28.5z" />
<glyph unicode="&#x201c;" horiz-adv-x="546" d="M102.5 901q1.5 17 16.5 27q86 63 86 106q0 12 -15 23q-14 10 -16 26.5t7 29.5t26 15t29 -8q49 -35 49 -86q0 -82 -119 -170q-10 -8 -25 -8q-18 0 -30 16q-10 12 -8.5 29zM234 855.5q2 16.5 16 27.5q47 37 81 83t34 74q0 10 -9 17q-12 10 -15 26.5t7 29.5t26.5 15t28.5 -8 q41 -29 41 -80q0 -53 -44 -114.5t-103 -106.5q-12 -8 -25 -8q-20 0 -30 16q-10 12 -8 28.5z" />
<glyph unicode="#" horiz-adv-x="1564" d="M102 196.5q0 16.5 11.5 28t27.5 11.5h23h332l141 141q-182 0 -324 4q-16 2 -27.5 13.5t-10.5 27.5t13.5 27.5t26.5 11.5q170 -6 404 -6q317 303 459 381q14 8 29.5 4t23.5 -18.5t3 -31t-20 -22.5q-117 -66 -378 -313q66 2 141 2q199 209 223 248q8 14 24.5 17t30 -5 t17.5 -24.5t-4 -30.5q-25 -37 -181 -203q217 2 336 2q16 0 27.5 -11.5t11.5 -27.5t-11 -28.5t-28 -12.5q-121 0 -368 -2h-22.5h-20.5q-72 -74 -152 -156q152 -8 277 -24q16 0 26.5 -13.5t7.5 -29.5q-2 -14 -13 -24.5t-25 -10.5h-7q-150 18 -338 26q-317 -322 -409 -401 q-10 -10 -27 -10q-16 0 -28 14q-10 12 -9.5 28.5t13.5 26.5q84 74 354 347q-76 2 -154 4q-217 -219 -344 -363q-10 -14 -28 -14q-14 0 -27 10q-12 10 -13 26.5t9 28.5q104 117 295 314h-256h-23q-16 0 -27.5 11t-11.5 27.5zM604 233q80 -2 152 -6q76 78 145 150h-149 q-72 -70 -148 -144z" />
<glyph unicode="$" horiz-adv-x="700" d="M-36 54.5q5 15.5 20.5 23.5t31 3t21.5 -22q41 -80 139 -84q41 109 121 326q37 100 57 154q-55 82 -68.5 178t9 177t74.5 142q90 111 223 113q23 55 45 109q6 14 20.5 20t29.5 0t21.5 -21.5t0.5 -29.5q-16 -39 -35 -88q34 -9 69 -25q14 -6 20.5 -21.5t-0.5 -29.5 t-22.5 -20.5t-29.5 -0.5q-33 16 -68 23q-102 -254 -201 -516q135 -203 45 -381q-25 -47 -64.5 -86t-89.5 -63.5t-102 -32.5q-35 -86 -65 -164q-10 -25 -37 -25q-8 0 -16 4q-14 6 -20.5 21.5t-0.5 30.5q27 63 53 131q-123 16 -178 125q-8 14 -3 29.5zM266 -8q103 37 152 129 q55 111 -10 248q-10 -23 -37 -97q-68 -186 -105 -280zM362.5 743q-12.5 -92 28.5 -192q82 217 168 432q-76 -14 -131 -82q-53 -66 -65.5 -158z" />
<glyph unicode="%" horiz-adv-x="1083" d="M-72 -158q4 47 97.5 167t318.5 390q416 494 508 648q23 39 37 69.5t18 48t4 29.5t-2 16t-4 7q-29 27 -155.5 -17.5t-264.5 -120.5q8 -92 -51 -184q-90 -145 -166 -133q-45 8 -57 61q-4 27 2 59.5t22.5 66.5t48 69t72.5 61q4 4 21.5 14.5t55.5 33t82 44t95.5 46t101.5 42 t96 26.5t83.5 5t60.5 -24q70 -66 -43 -254q-45 -74 -137 -195t-164.5 -209t-210.5 -252q-92 -109 -141 -168t-119.5 -147t-104.5 -138t-36 -67q-2 -14 -11.5 -22.5t-21.5 -8.5h-4q-6 0 -12 3.5t-10.5 8.5t-6.5 11t-2 14zM276 858q-2 -25 5 -29q6 -2 16 4.5t32.5 32 t47.5 64.5q35 55 41 108q-12 -8 -25 -16q-55 -37 -83.5 -82t-33.5 -82zM485 139q2 47 30 99.5t71 76.5q39 20 82 11q10 39 10 71q0 12 10 22.5t24.5 10.5t23.5 -10t9 -25q0 -59 -27.5 -134t-66.5 -133t-73 -77q-16 -10 -33 -10q-14 0 -27 8q-35 20 -33 90zM553 117 q47 39 92 143q-2 2 -6 2q-10 0 -21 -6q-25 -14 -45 -52t-20 -67v-20z" />
<glyph unicode="&#x26;" horiz-adv-x="935" d="M51 -80q-104 115 199 410q104 102 186 198q-2 145 21 279q20 119 75.5 189.5t112.5 78.5q68 10 98 -51q33 -68 -19 -203t-208 -321q6 -231 74 -416q61 37 108 76q90 78 111 131q-2 -2 -8 -2q-14 -6 -28.5 1t-21 22.5t1 29.5t23.5 20q78 27 107 -24q23 -39 -12 -101.5 t-121 -136.5q-53 -45 -132 -90q43 -94 101 -168q10 -12 9 -28.5t-15 -26.5q-10 -8 -25 -8q-18 0 -31 14q-61 80 -108 182q-98 -47 -195.5 -73.5t-181.5 -23.5t-121 42zM104.5 -5.5q2.5 -11.5 6.5 -21.5q33 -35 155.5 -12t253.5 86q-61 168 -78 369q-63 -70 -137 -144 q-57 -53 -98 -101t-61.5 -80t-32 -58.5t-9 -38zM518 629q55 74 93 140.5t50.5 106t16.5 72.5t-6 41q-4 8 -10 8h-5q-33 -6 -69.5 -60t-52.5 -144q-12 -76 -17 -164z" />
<glyph unicode="'" horiz-adv-x="415" d="M102.5 855.5q1.5 16.5 16.5 27.5q31 25 58.5 53.5t43 57t15.5 46.5q0 10 -9 17q-14 10 -16 26.5t7 29.5t25.5 15t30.5 -8q39 -29 39 -80q0 -53 -44 -114.5t-103 -106.5q-10 -8 -25 -8q-18 0 -30 16q-10 12 -8.5 28.5z" />
<glyph unicode="&#x2018;" horiz-adv-x="415" d="M102.5 855.5q1.5 16.5 16.5 27.5q31 25 58.5 53.5t43 57t15.5 46.5q0 10 -9 17q-14 10 -16 26.5t7 29.5t25.5 15t30.5 -8q39 -29 39 -80q0 -53 -44 -114.5t-103 -106.5q-10 -8 -25 -8q-18 0 -30 16q-10 12 -8.5 28.5z" />
<glyph unicode="(" horiz-adv-x="669" d="M109.5 -334.5q-15.5 107.5 1 221t50.5 232.5t92 241.5t118.5 236.5t136.5 228.5t140.5 206.5t135.5 182q10 12 25.5 15.5t29 -7t15.5 -26.5t-8 -29q-352 -459 -524 -845q-233 -526 -80 -818q8 -14 3 -29.5t-20 -23.5q-8 -4 -18 -4q-25 0 -35 21q-47 90 -62.5 197.5z" />
<glyph unicode=")" horiz-adv-x="731" d="M-246 -484.5q4 15.5 19 23.5q246 129 421 325.5t267 448.5q84 227 88 468t-72 464q-6 16 1 30.5t22.5 19.5t30 -2t20.5 -21q80 -236 77 -491t-93 -496q-96 -264 -280.5 -472t-444.5 -343q-8 -4 -19 -5q-23 0 -35 21q-6 14 -2 29.5z" />
<glyph unicode="*" horiz-adv-x="661" d="M103.5 759.5q2.5 16.5 17.5 24.5q18 12 90 62q53 35 90 61q-55 88 -68 101q-12 12 -12 28.5t11.5 27.5t27.5 12t29 -11q14 -12 55 -80q43 117 57 148q6 14 20.5 20t30 0t21.5 -21.5t0 -29.5q-8 -23 -41 -111q55 35 80 39q10 4 20.5 1t17.5 -11.5t9 -18.5q4 -16 -5 -29.5 t-24 -17.5q-23 -6 -122 -71q16 -29 34 -60q35 -59 39 -63q8 -14 7 -29.5t-13 -25.5q-12 -8 -26 -9q-18 0 -29 15q-6 4 -45 71q-2 4 -13 21q-39 -111 -43 -133q-8 -31 -38 -31h-9q-16 4 -25 17.5t-5 29.5q4 23 34 109q-2 -2 -20 -15q-74 -49 -92 -61q-10 -6 -23 -6 q-20 0 -32 18q-8 12 -5.5 28.5z" />
<glyph unicode="+" horiz-adv-x="706" d="M102 481q0 16 10.5 28.5t26.5 14.5q18 0 86 4q72 4 109 4q63 152 69 162q8 14 24.5 18.5t30 -4t17.5 -23.5t-2 -30q-6 -12 -51 -118q92 4 141 4q16 0 27.5 -11.5t11.5 -28t-11 -27.5t-28 -11q-55 0 -176 -6q-16 -39 -37 -84q-25 -61 -37 -88q-16 -41 -24 -50.5t-27 -9.5 q-16 0 -27.5 11.5t-11.5 27.5q0 10 4 19q4 8 52 120q12 29 20 50q-33 -2 -70 -4q-59 -2 -86 -5h-2q-14 0 -26.5 11.5t-12.5 25.5z" />
<glyph unicode="," horiz-adv-x="339" d="M25 -178.5q2 16.5 16 26.5q47 37 82 83t35 75q0 10 -8 17q-14 10 -16.5 25t7 28.5t26 16.5t30.5 -7q39 -29 39 -80q0 -53 -44.5 -114.5t-103.5 -106.5q-10 -8 -25 -8q-20 0 -30 16q-10 12 -8 28.5z" />
<glyph unicode="-" d="M102 358q0 10 4.5 20.5t12.5 16.5t18 8q27 2 277 0h153q29 7 41 -20q6 -14 1 -29.5t-19 -23.5q-10 -4 -178 -4q-244 2 -267 -2h-4q-14 0 -25.5 10t-13.5 24z" />
<glyph unicode="." horiz-adv-x="274" d="M70 51q18 31 49 41q47 14 53 -20q4 -37 -35 -56q-20 -10 -47 -10q-43 4 -20 45z" />
<glyph unicode="/" horiz-adv-x="1075" d="M102.5 -187.5q-2.5 15.5 8.5 29.5q158 188 428 533q387 492 710 882q10 12 26.5 14.5t29 -8t13.5 -26.5t-9 -29q-322 -391 -707 -880q-272 -346 -430 -537q-12 -14 -31 -14q-14 0 -24 8q-12 12 -14.5 27.5z" />
<glyph unicode="0" horiz-adv-x="626" d="M61 -27q-104 109 33 549q35 111 85 236t127 254t136 139q16 4 30.5 -6t19.5 -27q2 -8 -0.5 -16t-6.5 -15.5t-11 -11.5t-15 -6q-11 -2 -25 -18q100 -63 144.5 -187.5t23.5 -288.5q-18 -133 -74.5 -263t-148.5 -231t-199 -132q-23 -6 -43 -6q-45 0 -76 30zM103.5 83 q5.5 -38 19.5 -50q10 -10 35 -2q123 35 228 197.5t132 357.5q18 141 -16.5 244.5t-116.5 152.5q-63 -100 -132 -267t-112 -341q-27 -100 -35 -177t-2.5 -115z" />
<glyph unicode="1" horiz-adv-x="393" d="M47 -66q23 111 105 426q147 567 153 689q-47 -57 -129 -197q-8 -16 -25.5 -20.5t-33 5t-19.5 26t4 32.5q102 174 153.5 224t92.5 34q29 -12 38 -46t-4 -129t-47 -238.5t-102 -399.5q-27 -106 -42 -162.5t-33.5 -133.5t-28.5 -128q-6 -33 -41 -33q-4 0 -8 2 q-18 2 -27.5 17.5t-5.5 31.5z" />
<glyph unicode="2" horiz-adv-x="518" d="M6 43q10 57 43 135t62.5 132.5t87.5 158.5q63 113 96 176.5t70.5 154.5t48.5 158q6 41 -6 48q-14 10 -63.5 -6.5t-102.5 -55.5q-14 -10 -31.5 -7t-28 16.5t-7.5 30.5t18 28q10 8 24 18t47 26.5t62.5 27t64.5 10.5t62 -15q59 -37 45 -135q-12 -72 -51 -170t-74 -162.5 t-101 -183.5q-55 -100 -82.5 -152.5t-59.5 -125t-40 -121.5q-2 -10 -2 -19v-8q33 -8 139.5 60.5t159.5 140.5q10 14 27.5 17t32 -7t16.5 -27.5t-8 -31.5q-53 -76 -169 -156t-194 -80q-23 0 -39 6q-63 29 -47 119z" />
<glyph unicode="3" horiz-adv-x="589" d="M-66 -61q-4 16 5.5 31.5t25.5 19.5q131 33 230.5 88t155 119.5t78 132t11.5 131.5q-14 90 -84.5 139t-175.5 41q-31 -2 -42 26.5t14 49.5q78 59 133 111.5t79.5 83t37 54t13.5 31t1 9.5q-16 14 -76 -7q-43 -14 -77 -43.5t-38 -66.5q-4 -16 -17 -27.5t-30.5 -8.5t-28 16.5 t-8.5 31.5q10 74 78 127t146 64q100 12 129 -54q43 -106 -207 -319q96 -20 159.5 -85t77.5 -159q12 -78 -13.5 -160t-87 -160.5t-175 -144t-262.5 -102.5q-6 -2 -11 -2q-33 0 -41 33z" />
<glyph unicode="4" horiz-adv-x="585" d="M47 395q12 139 130 372.5t222 322.5q14 12 32 10t29 -15.5t10 -31t-15 -27.5q-92 -78 -203 -297t-121 -342v-2q27 12 77 50t126 108.5t143 148.5q2 2 2 4q35 35 68 15q27 -27 17.5 -62t-77.5 -194q-160 -381 -161 -469q0 -12 -6.5 -21.5t-15.5 -14.5t-19 -5h-2 q-16 0 -28.5 12t-12.5 31q2 104 168 499l12 27q-29 -29 -53 -51q-197 -184 -273 -164q-57 16 -49 96z" />
<glyph unicode="5" horiz-adv-x="612" d="M-109 3q0 17 12.5 29.5t28.5 12.5q133 0 268.5 98.5t190.5 216.5q37 82 10 115q-43 49 -219 0q-31 -8 -49 17q-8 12 -10 26t8 82t39 184q61 240 98 293q16 23 43 19q55 -10 156 -39q149 -43 227 -43q16 0 28.5 -12.5t12.5 -30t-12 -29.5t-29 -12q-88 0 -250 45 q-78 23 -118 31q-27 -63 -66 -211t-49 -226q186 39 254 -41q63 -74 2 -202q-63 -139 -220 -252t-315 -113q-16 0 -28.5 12.5t-12.5 29.5z" />
<glyph unicode="6" horiz-adv-x="643" d="M68 489q14 121 60 244t112 215q63 88 129.5 123t124.5 8q16 -6 22 -22.5t-2 -32.5t-24.5 -22.5t-30.5 2.5q-27 12 -68 -17t-84 -88q-57 -84 -100 -196.5t-55 -223.5q-27 -203 47 -336q27 106 82 181q41 55 89 83.5t87.5 25.5t72.5 -21q57 -37 64.5 -117t-53.5 -203 q-14 -25 -34 -50.5t-65 -58t-92 -38.5q-10 -2 -20 -2q-76 0 -140 67q-162 170 -122 479zM266 55q35 -31 74 -26q37 4 70.5 34.5t56.5 69.5t34 74t11 61.5t-6 45t-21 28.5q-25 14 -62.5 -2t-74.5 -66q-61 -84 -82 -219z" />
<glyph unicode="7" horiz-adv-x="589" d="M46 928.5q1 17.5 15 27.5q168 143 269.5 191.5t156.5 9.5q43 -29 48.5 -102.5t-17 -173t-74.5 -254.5q102 27 136 30q16 2 30.5 -8t17.5 -26.5t-7.5 -30.5t-28.5 -17q-43 -8 -178 -45q-12 -39 -31 -92q-43 -125 -65.5 -191.5t-44 -151.5t-21.5 -126q0 -18 -12.5 -30.5 t-29.5 -12.5t-29.5 12.5t-12.5 30.5q0 47 21.5 135.5t44 158t69.5 202.5q2 6 6 18.5t6 18.5q-135 -41 -157 -53q-10 -6 -21 -7q-25 0 -37 21q-8 16 -4 32.5t21 26.5q37 20 231 76q61 182 84 287q18 78 20.5 128t-3 60t-9.5 14q-4 2 -10 3.5t-30.5 -6t-57.5 -25t-93.5 -60.5 t-133.5 -106q-12 -12 -29.5 -10t-29 15t-10.5 30.5z" />
<glyph unicode="8" horiz-adv-x="587" d="M21.5 103.5q-5.5 37.5 4 94t57.5 128t132 149.5q-29 -10 -47 17q-8 16 -5 32.5t17 26.5q20 12 41 27q-61 137 -71 235q-10 76 23.5 143.5t107.5 110.5q72 45 154.5 50t137.5 -32q82 -57 62 -172q-10 -68 -101.5 -169t-205.5 -191q18 -39 59 -115q96 -182 105 -243 q12 -98 -27 -169t-121 -98q-41 -14 -84 -14q-68 0 -127 31.5t-90 87.5q-16 33 -21.5 70.5zM117 74q27 -45 86 -64.5t114 -1.5q109 35 91 174q-6 47 -97 217q-10 20 -16 33q-119 -104 -166 -198.5t-12 -159.5zM231 823q11 -79 60 -192q100 82 177 168t85 129q10 61 -27 88 q-27 18 -71 18q-68 0 -131 -39q-104 -63 -93 -172z" />
<glyph unicode="9" horiz-adv-x="448" d="M35 856q18 86 110.5 152.5t253.5 72.5q12 0 22.5 -5t16.5 -14t6 -22q0 -16 -12 -29.5t-29 -13.5q-125 -4 -198.5 -51t-85.5 -108q-12 -55 26 -72q14 -4 34 -6t50.5 11t65.5 35.5t80 67t92 103.5q25 29 56.5 9.5t15.5 -52.5q-72 -154 -185.5 -491t-148.5 -478 q-8 -33 -41 -33q-4 0 -10 2q-16 4 -25.5 18.5t-5.5 31.5q25 102 103.5 343.5t152.5 436.5q-158 -127 -268 -76q-45 20 -65.5 66.5t-10.5 101.5z" />
<glyph unicode=":" horiz-adv-x="466" d="M109 78q18 33 49 41q47 14 52 -21t-36 -55q-18 -10 -45 -8q-43 2 -20 43zM262 428q20 29 49 41q47 14 54 -20q4 -37 -35 -56q-20 -10 -47 -10q-43 4 -21 45z" />
<glyph unicode=";" horiz-adv-x="520" d="M102.5 -178.5q1.5 16.5 16.5 26.5q47 37 82 83t32 75q0 10 -8 17q-12 10 -14 25t7 28.5t25.5 16.5t28.5 -7q41 -29 41 -80q0 -53 -43 -114.5t-104 -106.5q-10 -8 -25 -8q-18 0 -30 16q-10 12 -8.5 28.5zM317 428q19 29 50 41q47 14 51 -20q6 -35 -35 -56q-20 -10 -47 -10 q-41 4 -19 45z" />
<glyph unicode="&#x3c;" horiz-adv-x="731" d="M102 420q0 72 99 127q160 90 366 241q12 10 28.5 8.5t26 -15t7.5 -30t-17 -26.5q-209 -154 -372 -248q-57 -33 -60 -57q0 -8 5 -17.5t15.5 -19.5t20.5 -19.5t27.5 -20.5t31 -20.5t34 -21.5t32.5 -19.5t33 -19.5q80 -45 117 -69q12 -8 16 -24.5t-6 -31.5q-10 -16 -33 -16 q-12 0 -20 6q-35 23 -113 68q-63 37 -94 56t-71 50t-56.5 59.5t-16.5 59.5z" />
<glyph unicode="=" horiz-adv-x="894" d="M102 266q-2 16 9.5 28.5t27.5 12.5q37 4 422 2h156q16 2 28.5 -9t12.5 -28q0 -8 -3 -15t-8.5 -13t-12.5 -9.5t-15 -3.5h-158q-383 0 -416 -2h-4q-14 0 -25.5 10.5t-13.5 26.5zM201 555q0 16 10 28.5t27 14.5q43 4 485 2h31q16 0 27.5 -11t11.5 -27.5t-11.5 -28 t-27.5 -11.5h-31q-438 2 -479 -2h-2q-16 0 -27.5 10.5t-13.5 24.5z" />
<glyph unicode="&#x3e;" horiz-adv-x="784" d="M104.5 181.5q4.5 15.5 18.5 23.5q190 100 465 282q14 8 14 15q-2 35 -203 147q-119 68 -155 99q-12 10 -14.5 26.5t9 29.5t27 14t29.5 -9q30 -27 143 -90q51 -29 76 -44.5t62.5 -40t56 -43t33 -42t16.5 -45.5q2 -49 -49 -82q-279 -186 -473 -287q-8 -4 -19 -4 q-23 0 -35 21q-6 14 -1.5 29.5z" />
<glyph unicode="?" horiz-adv-x="643" d="M19 -255q-5 17 7.5 36.5t30.5 23.5q43 14 56 -20q12 -37 -27 -53q-16 -6 -37 -6q-25 2 -30 19zM68 -47q4 39 36.5 115.5t112.5 242.5q174 360 219 506q16 59 21.5 102.5t1.5 58.5t-8 19q-4 -4 -7.5 0t-23 -5t-42 -22.5t-65.5 -50t-92 -88.5q-12 -12 -28.5 -12t-27.5 11.5 t-11 27.5t10 29q229 235 325 178q88 -51 21 -270q-45 -152 -223 -519q-137 -285 -140 -329q-2 -14 -13 -24.5t-25 -10.5h-5q-16 0 -26 12.5t-10 28.5z" />
<glyph unicode="@" horiz-adv-x="1236" d="M123 233q31 125 81 231.5t109.5 180.5t129 130t140 82t144.5 35t141 -11q147 -37 219 -162q76 -131 33 -309q-45 -178 -134 -294t-171 -100q-119 27 -92 299q-102 -109 -180 -176q-68 -59 -107 -39q-31 18 -22 72q8 55 54 145.5t121 174t142 98.5q84 16 135 -68 q16 -27 -10.5 -43t-42.5 10q-35 55 -88 33q-76 -33 -156 -158.5t-94 -195.5q12 6 25 18q80 70 202 199q31 33 43 45q16 16 37 5t17 -34q-12 -68 -15.5 -125t-0.5 -91.5t10.5 -58.5t16.5 -34t17 -12q47 -10 120 89t112 257q16 59 11 121.5t-25.5 116t-70.5 95.5t-122 60 q-43 6 -91 9t-102.5 -14t-108.5 -44t-107.5 -78t-100.5 -114.5t-89 -156.5t-69 -204q-59 -229 64 -313q70 -47 180.5 -36t200.5 75q27 18 44 -7.5t-7 -44.5q-127 -90 -277 -90q-104 0 -176 52q-160 109 -90 380z" />
<glyph unicode="A" horiz-adv-x="2248" d="M102 122q6 228 80 398q92 208 270 280q87 35 187 36q106 0 229 -39q16 -4 23.5 -18.5t2.5 -30t-19.5 -23.5t-30.5 -2q-80 25 -156 31q-19 2 -39 2q-58 0 -120 -14q-83 -18 -154.5 -82t-120.5 -173q-37 -84 -55.5 -186t-18.5 -200.5t14.5 -193.5t40 -172t59.5 -132.5 t73 -77.5q23 -13 46 -13q66 0 142 101q164 221 455 776q-532 14 -582 25q-16 4 -25.5 17t-6.5 29.5t17.5 25t28.5 6.5q45 -10 609 -25q90 176 272 532q119 238 194.5 385.5t148.5 280.5t116 201.5t82 119t64.5 63.5t49.5 5q32 -12 42 -55q5 -22 6 -53q0 -29 -5 -66 q-12 -133 -71 -397q-25 -117 -125 -529q-78 -324 -121 -503q399 -13 426 -31q14 -10 16 -26.5t-6 -28.5q-12 -16 -33 -17q-8 0 -16 4q-41 8 -405 21q-100 -420 -162 -711q-125 -580 -125 -743q8 14 18 30q8 14 24.5 18.5t30 -3.5t17.5 -23.5t-4 -30.5q-59 -100 -103 -100 q-10 0 -20 4q-25 10 -34 44q-6 22 -6 69q0 26 2 60q5 95 36 263t91 445.5t155 679.5q-139 4 -416 10q-41 2 -92 2q-309 -588 -480 -821q-45 -59 -90 -92q-46 -33 -84 -38q-18 -2 -32 -2q-18 0 -33 3q-27 6 -51 20q-106 61 -169 249q-57 170 -57 374q-1 21 0 42zM1139 465 h25.5h27.5q268 -8 432 -12q55 238 123 520q100 410 127 526q73 329 73 444q0 12 -1 21q-33 -33 -91.5 -128t-147.5 -263t-148.5 -283.5t-165.5 -324.5q-168 -332 -254 -500z" />
<glyph unicode="&#xc3;" horiz-adv-x="2248" d="M102 122q6 228 80 398q92 208 270 280q87 35 187 36q106 0 229 -39q16 -4 23.5 -18.5t2.5 -30t-19.5 -23.5t-30.5 -2q-80 25 -156 31q-19 2 -39 2q-58 0 -120 -14q-83 -18 -154.5 -82t-120.5 -173q-37 -84 -55.5 -186t-18.5 -200.5t14.5 -193.5t40 -172t59.5 -132.5 t73 -77.5q23 -13 46 -13q66 0 142 101q164 221 455 776q-532 14 -582 25q-16 4 -25.5 17t-6.5 29.5t17.5 25t28.5 6.5q45 -10 609 -25q90 176 272 532q119 238 194.5 385.5t148.5 280.5t116 201.5t82 119t64.5 63.5t49.5 5q32 -12 42 -55q5 -22 6 -53q0 -29 -5 -66 q-12 -133 -71 -397q-25 -117 -125 -529q-78 -324 -121 -503q399 -13 426 -31q14 -10 16 -26.5t-6 -28.5q-12 -16 -33 -17q-8 0 -16 4q-41 8 -405 21q-100 -420 -162 -711q-125 -580 -125 -743q8 14 18 30q8 14 24.5 18.5t30 -3.5t17.5 -23.5t-4 -30.5q-59 -100 -103 -100 q-10 0 -20 4q-25 10 -34 44q-6 22 -6 69q0 26 2 60q5 95 36 263t91 445.5t155 679.5q-139 4 -416 10q-41 2 -92 2q-309 -588 -480 -821q-45 -59 -90 -92q-46 -33 -84 -38q-18 -2 -32 -2q-18 0 -33 3q-27 6 -51 20q-106 61 -169 249q-57 170 -57 374q-1 21 0 42zM1139 465 h25.5h27.5q268 -8 432 -12q55 238 123 520q100 410 127 526q73 329 73 444q0 12 -1 21q-33 -33 -91.5 -128t-147.5 -263t-148.5 -283.5t-165.5 -324.5q-168 -332 -254 -500z" />
<glyph unicode="&#xc2;" horiz-adv-x="2248" d="M102 122q6 228 80 398q92 208 270 280q87 35 187 36q106 0 229 -39q16 -4 23.5 -18.5t2.5 -30t-19.5 -23.5t-30.5 -2q-80 25 -156 31q-19 2 -39 2q-58 0 -120 -14q-83 -18 -154.5 -82t-120.5 -173q-37 -84 -55.5 -186t-18.5 -200.5t14.5 -193.5t40 -172t59.5 -132.5 t73 -77.5q23 -13 46 -13q66 0 142 101q164 221 455 776q-532 14 -582 25q-16 4 -25.5 17t-6.5 29.5t17.5 25t28.5 6.5q45 -10 609 -25q90 176 272 532q119 238 194.5 385.5t148.5 280.5t116 201.5t82 119t64.5 63.5t49.5 5q32 -12 42 -55q5 -22 6 -53q0 -29 -5 -66 q-12 -133 -71 -397q-25 -117 -125 -529q-78 -324 -121 -503q399 -13 426 -31q14 -10 16 -26.5t-6 -28.5q-12 -16 -33 -17q-8 0 -16 4q-41 8 -405 21q-100 -420 -162 -711q-125 -580 -125 -743q8 14 18 30q8 14 24.5 18.5t30 -3.5t17.5 -23.5t-4 -30.5q-59 -100 -103 -100 q-10 0 -20 4q-25 10 -34 44q-6 22 -6 69q0 26 2 60q5 95 36 263t91 445.5t155 679.5q-139 4 -416 10q-41 2 -92 2q-309 -588 -480 -821q-45 -59 -90 -92q-46 -33 -84 -38q-18 -2 -32 -2q-18 0 -33 3q-27 6 -51 20q-106 61 -169 249q-57 170 -57 374q-1 21 0 42zM1139 465 h25.5h27.5q268 -8 432 -12q55 238 123 520q100 410 127 526q73 329 73 444q0 12 -1 21q-33 -33 -91.5 -128t-147.5 -263t-148.5 -283.5t-165.5 -324.5q-168 -332 -254 -500z" />
<glyph unicode="&#xc1;" horiz-adv-x="2248" d="M102 122q6 228 80 398q92 208 270 280q87 35 187 36q106 0 229 -39q16 -4 23.5 -18.5t2.5 -30t-19.5 -23.5t-30.5 -2q-80 25 -156 31q-19 2 -39 2q-58 0 -120 -14q-83 -18 -154.5 -82t-120.5 -173q-37 -84 -55.5 -186t-18.5 -200.5t14.5 -193.5t40 -172t59.5 -132.5 t73 -77.5q23 -13 46 -13q66 0 142 101q164 221 455 776q-532 14 -582 25q-16 4 -25.5 17t-6.5 29.5t17.5 25t28.5 6.5q45 -10 609 -25q90 176 272 532q119 238 194.5 385.5t148.5 280.5t116 201.5t82 119t64.5 63.5t49.5 5q32 -12 42 -55q5 -22 6 -53q0 -29 -5 -66 q-12 -133 -71 -397q-25 -117 -125 -529q-78 -324 -121 -503q399 -13 426 -31q14 -10 16 -26.5t-6 -28.5q-12 -16 -33 -17q-8 0 -16 4q-41 8 -405 21q-100 -420 -162 -711q-125 -580 -125 -743q8 14 18 30q8 14 24.5 18.5t30 -3.5t17.5 -23.5t-4 -30.5q-59 -100 -103 -100 q-10 0 -20 4q-25 10 -34 44q-6 22 -6 69q0 26 2 60q5 95 36 263t91 445.5t155 679.5q-139 4 -416 10q-41 2 -92 2q-309 -588 -480 -821q-45 -59 -90 -92q-46 -33 -84 -38q-18 -2 -32 -2q-18 0 -33 3q-27 6 -51 20q-106 61 -169 249q-57 170 -57 374q-1 21 0 42zM1139 465 h25.5h27.5q268 -8 432 -12q55 238 123 520q100 410 127 526q73 329 73 444q0 12 -1 21q-33 -33 -91.5 -128t-147.5 -263t-148.5 -283.5t-165.5 -324.5q-168 -332 -254 -500z" />
<glyph unicode="&#xc0;" horiz-adv-x="2248" d="M102 122q6 228 80 398q92 208 270 280q87 35 187 36q106 0 229 -39q16 -4 23.5 -18.5t2.5 -30t-19.5 -23.5t-30.5 -2q-80 25 -156 31q-19 2 -39 2q-58 0 -120 -14q-83 -18 -154.5 -82t-120.5 -173q-37 -84 -55.5 -186t-18.5 -200.5t14.5 -193.5t40 -172t59.5 -132.5 t73 -77.5q23 -13 46 -13q66 0 142 101q164 221 455 776q-532 14 -582 25q-16 4 -25.5 17t-6.5 29.5t17.5 25t28.5 6.5q45 -10 609 -25q90 176 272 532q119 238 194.5 385.5t148.5 280.5t116 201.5t82 119t64.5 63.5t49.5 5q32 -12 42 -55q5 -22 6 -53q0 -29 -5 -66 q-12 -133 -71 -397q-25 -117 -125 -529q-78 -324 -121 -503q399 -13 426 -31q14 -10 16 -26.5t-6 -28.5q-12 -16 -33 -17q-8 0 -16 4q-41 8 -405 21q-100 -420 -162 -711q-125 -580 -125 -743q8 14 18 30q8 14 24.5 18.5t30 -3.5t17.5 -23.5t-4 -30.5q-59 -100 -103 -100 q-10 0 -20 4q-25 10 -34 44q-6 22 -6 69q0 26 2 60q5 95 36 263t91 445.5t155 679.5q-139 4 -416 10q-41 2 -92 2q-309 -588 -480 -821q-45 -59 -90 -92q-46 -33 -84 -38q-18 -2 -32 -2q-18 0 -33 3q-27 6 -51 20q-106 61 -169 249q-57 170 -57 374q-1 21 0 42zM1139 465 h25.5h27.5q268 -8 432 -12q55 238 123 520q100 410 127 526q73 329 73 444q0 12 -1 21q-33 -33 -91.5 -128t-147.5 -263t-148.5 -283.5t-165.5 -324.5q-168 -332 -254 -500z" />
<glyph unicode="B" horiz-adv-x="2004" d="M125 1087q-22 101 -22 194q0 161 66 299q105 218 357 341q109 53 232 80q4 25 8 39q0 10 7 18t17.5 11.5t20.5 1.5q16 -2 25.5 -15.5t5.5 -30.5v-5v-3q80 12 156 12q126 0 244 -32q190 -51 288 -172q58 -72 78 -158q12 -55 13 -107q0 -29 -4 -57q-11 -78 -46 -163 t-73 -146t-83 -121q-16 -25 -39 -49q199 -41 316 -186q119 -150 130 -370q1 -22 1 -44q0 -199 -90 -406q-150 -346 -473.5 -558t-747.5 -242h-2q-16 0 -27.5 10t-11.5 27q-2 16 9.5 28t25.5 12q401 29 707.5 229t447.5 525q84 192 84 374q0 17 -1 35q-9 198 -114 330 q-115 141 -315 168q-174 -180 -416 -335.5t-373 -171.5q-233 -1165 -262 -1463q4 10 8 21q6 16 21.5 22t31 0t21.5 -21.5t0 -29.5q-35 -86 -58.5 -122t-49.5 -36q-8 0 -17 4q-23 6 -31 30q-6 17 -6 68q0 19 1 43q3 87 32 261t85 477t149 764q-22 20 -22 50q0 10 3 22 q20 74 62 141q37 182 79 399q129 629 168 838q-96 -25 -180 -68q-150 -72 -243 -185q-92 -114 -122 -254q-13 -64 -14 -134q0 -82 19 -172q4 -16 -5.5 -29.5t-24.5 -17.5t-29.5 5t-16.5 25zM543 530q106 31 307 154t360 277q-80 0 -168 -19q-141 -29 -271 -102.5 t-204 -188.5q-14 -74 -24 -121zM600 811q168 158 428 209q103 20 198 20q29 0 58 -2q39 41 70 82q150 203 180 371q7 41 8 79q0 117 -72 204q-90 110 -268 152q-98 23 -202 23q-86 0 -175 -16q-39 -211 -174 -868q-31 -150 -51 -254z" />
<glyph unicode="C" horiz-adv-x="1581" d="M106 -236q-4 64 -3 133q0 229 42 502q59 373 203 770q168 467 365 703q124 147 220 147q28 0 54 -12q79 -39 107 -185q16 -88 17 -202q1 -77 -7 -166q-18 -221 -55 -443.5t-95 -480.5q-4 -14 -18 -23t-29.5 -5t-25 17t-4.5 30q61 274 98 502.5t48 382.5q7 99 7 180 q0 44 -2 84q-6 110 -25.5 166.5t-50.5 70.5q-9 4 -20 4q-24 -1 -56 -21q-47 -30 -102 -95q-182 -219 -335.5 -638t-215.5 -798q-43 -262 -42 -482q0 -204 36 -372q35 -160 100.5 -259t153.5 -126q34 -11 71 -11q172 0 398 236q324 338 672 1086q6 14 21.5 20t30.5 -1 t20.5 -22.5t-1.5 -29.5q-205 -438 -407.5 -745.5t-390 -465t-346.5 -157.5q-47 0 -93 14q-145 45 -234.5 228.5t-105.5 463.5z" />
<glyph unicode="D" horiz-adv-x="1742" d="M106 914q16 148 61.5 277.5t124.5 246t168 208t191 164.5q63 45 127 82q16 86 29 148q2 16 15.5 25.5t29.5 6t25.5 -16.5t7.5 -30q-8 -37 -17 -88q200 95 390 105q20 1 39 2q165 0 288 -74q45 -27 83 -63.5t75 -97t55 -137.5q19 -76 27 -184q2 -28 3 -57q0 -84 -18 -180 q-57 -389 -215.5 -759.5t-400.5 -677.5q-205 -258 -421 -413t-374 -155h-4q-27 0 -51 6q-29 -172 -37 -266q4 10 8 21q6 16 21.5 22t31 0t21.5 -21.5t0 -29.5q-35 -86 -58.5 -122t-51.5 -36q-6 0 -15 4q-23 6 -32 32q-5 14 -5 51q-1 31 3 77q8 102 40 299q-84 57 -98 189 q-2 10 2 20t13.5 16.5t19.5 8.5q8 0 15 -2t13.5 -7.5t10.5 -11.5t4 -14q8 -68 35 -105q82 475 329 1688q106 526 146 723q-33 -20 -62 -41q-96 -70 -180 -155t-158.5 -194.5t-117.5 -229.5q-44 -120 -58 -258q-4 -41 -4 -81q0 -99 25 -200q2 -16 -6.5 -29.5t-24.5 -16.5 t-29.5 5t-17.5 24q-26 109 -26 214q0 44 5 88zM356 -670q18 -4 39 -6h4q127 0 327 138.5t404 400.5q82 102 160 225t170 301t165 405.5t108 467.5q14 98 14 184q-1 122 -29 218q-48 162 -174 241q-105 62 -246 62q-33 1 -67 -3q-184 -18 -381 -123q-41 -209 -160 -792 q-256 -1257 -334 -1719z" />
<glyph unicode="E" horiz-adv-x="1736" d="M66 346q0 16 12 29q72 70 543 198q47 188 145 564q104 397 145 563q-188 -49 -330.5 -102.5t-238.5 -113t-113 -114.5q-3 -8 -3 -16q0 -44 71 -92q12 -10 15 -25.5t-5 -30.5q-12 -16 -33 -16q-12 0 -22 6q-105 72 -105 155q0 21 7 42q63 211 778 395q12 51 20 88 q2 16 16.5 24.5t30 5.5t24.5 -16.5t5 -29.5q-4 -20 -10 -52q301 74 622.5 120t552.5 48q16 0 27.5 -11t11.5 -28q0 -10 -5 -19t-14 -14.5t-20 -5.5q-236 -4 -563 -52t-633 -124q-41 -172 -155 -606q-90 -344 -133 -520q287 76 556 130q250 50 332 51q6 0 11 -1 q16 -2 26.5 -13t9 -27.5t-12.5 -28t-27 -11.5q-7 1 -16 1q-45 0 -140 -16q-115 -19 -275.5 -54t-336.5 -78q-78 -20 -150 -39q-197 -795 -203 -1090v-10q0 -132 52 -153q14 -6 32 -6q22 0 49 9q50 17 117.5 64t127 93t143 124t128 120t117.5 114q43 43 64 63l35 33 q80 78 110 104q20 18 30.5 26.5t26 18t27.5 8.5t23 -12q14 -10 16 -23t-11.5 -38t-27.5 -45.5t-51 -69.5q-10 -14 -26.5 -16t-28.5 8q-4 2 -9 6l-24 -24l-35 -33q-20 -20 -63 -62q-106 -104 -180 -173.5t-163.5 -146.5t-155 -122t-131 -74.5t-114.5 -29.5q-33 0 -57 12 q-98 41 -98 221v14q4 301 192 1065q-414 -117 -467 -168q-10 -10 -27 -10q-16 0 -27 11.5t-11 27.5z" />
<glyph unicode="&#xca;" horiz-adv-x="1736" d="M66 346q0 16 12 29q72 70 543 198q47 188 145 564q104 397 145 563q-188 -49 -330.5 -102.5t-238.5 -113t-113 -114.5q-3 -8 -3 -16q0 -44 71 -92q12 -10 15 -25.5t-5 -30.5q-12 -16 -33 -16q-12 0 -22 6q-105 72 -105 155q0 21 7 42q63 211 778 395q12 51 20 88 q2 16 16.5 24.5t30 5.5t24.5 -16.5t5 -29.5q-4 -20 -10 -52q301 74 622.5 120t552.5 48q16 0 27.5 -11t11.5 -28q0 -10 -5 -19t-14 -14.5t-20 -5.5q-236 -4 -563 -52t-633 -124q-41 -172 -155 -606q-90 -344 -133 -520q287 76 556 130q250 50 332 51q6 0 11 -1 q16 -2 26.5 -13t9 -27.5t-12.5 -28t-27 -11.5q-7 1 -16 1q-45 0 -140 -16q-115 -19 -275.5 -54t-336.5 -78q-78 -20 -150 -39q-197 -795 -203 -1090v-10q0 -132 52 -153q14 -6 32 -6q22 0 49 9q50 17 117.5 64t127 93t143 124t128 120t117.5 114q43 43 64 63l35 33 q80 78 110 104q20 18 30.5 26.5t26 18t27.5 8.5t23 -12q14 -10 16 -23t-11.5 -38t-27.5 -45.5t-51 -69.5q-10 -14 -26.5 -16t-28.5 8q-4 2 -9 6l-24 -24l-35 -33q-20 -20 -63 -62q-106 -104 -180 -173.5t-163.5 -146.5t-155 -122t-131 -74.5t-114.5 -29.5q-33 0 -57 12 q-98 41 -98 221v14q4 301 192 1065q-414 -117 -467 -168q-10 -10 -27 -10q-16 0 -27 11.5t-11 27.5z" />
<glyph unicode="&#xc9;" horiz-adv-x="1736" d="M66 346q0 16 12 29q72 70 543 198q47 188 145 564q104 397 145 563q-188 -49 -330.5 -102.5t-238.5 -113t-113 -114.5q-3 -8 -3 -16q0 -44 71 -92q12 -10 15 -25.5t-5 -30.5q-12 -16 -33 -16q-12 0 -22 6q-105 72 -105 155q0 21 7 42q63 211 778 395q12 51 20 88 q2 16 16.5 24.5t30 5.5t24.5 -16.5t5 -29.5q-4 -20 -10 -52q301 74 622.5 120t552.5 48q16 0 27.5 -11t11.5 -28q0 -10 -5 -19t-14 -14.5t-20 -5.5q-236 -4 -563 -52t-633 -124q-41 -172 -155 -606q-90 -344 -133 -520q287 76 556 130q250 50 332 51q6 0 11 -1 q16 -2 26.5 -13t9 -27.5t-12.5 -28t-27 -11.5q-7 1 -16 1q-45 0 -140 -16q-115 -19 -275.5 -54t-336.5 -78q-78 -20 -150 -39q-197 -795 -203 -1090v-10q0 -132 52 -153q14 -6 32 -6q22 0 49 9q50 17 117.5 64t127 93t143 124t128 120t117.5 114q43 43 64 63l35 33 q80 78 110 104q20 18 30.5 26.5t26 18t27.5 8.5t23 -12q14 -10 16 -23t-11.5 -38t-27.5 -45.5t-51 -69.5q-10 -14 -26.5 -16t-28.5 8q-4 2 -9 6l-24 -24l-35 -33q-20 -20 -63 -62q-106 -104 -180 -173.5t-163.5 -146.5t-155 -122t-131 -74.5t-114.5 -29.5q-33 0 -57 12 q-98 41 -98 221v14q4 301 192 1065q-414 -117 -467 -168q-10 -10 -27 -10q-16 0 -27 11.5t-11 27.5z" />
<glyph unicode="&#xc8;" horiz-adv-x="1736" d="M66 346q0 16 12 29q72 70 543 198q47 188 145 564q104 397 145 563q-188 -49 -330.5 -102.5t-238.5 -113t-113 -114.5q-3 -8 -3 -16q0 -44 71 -92q12 -10 15 -25.5t-5 -30.5q-12 -16 -33 -16q-12 0 -22 6q-105 72 -105 155q0 21 7 42q63 211 778 395q12 51 20 88 q2 16 16.5 24.5t30 5.5t24.5 -16.5t5 -29.5q-4 -20 -10 -52q301 74 622.5 120t552.5 48q16 0 27.5 -11t11.5 -28q0 -10 -5 -19t-14 -14.5t-20 -5.5q-236 -4 -563 -52t-633 -124q-41 -172 -155 -606q-90 -344 -133 -520q287 76 556 130q250 50 332 51q6 0 11 -1 q16 -2 26.5 -13t9 -27.5t-12.5 -28t-27 -11.5q-7 1 -16 1q-45 0 -140 -16q-115 -19 -275.5 -54t-336.5 -78q-78 -20 -150 -39q-197 -795 -203 -1090v-10q0 -132 52 -153q14 -6 32 -6q22 0 49 9q50 17 117.5 64t127 93t143 124t128 120t117.5 114q43 43 64 63l35 33 q80 78 110 104q20 18 30.5 26.5t26 18t27.5 8.5t23 -12q14 -10 16 -23t-11.5 -38t-27.5 -45.5t-51 -69.5q-10 -14 -26.5 -16t-28.5 8q-4 2 -9 6l-24 -24l-35 -33q-20 -20 -63 -62q-106 -104 -180 -173.5t-163.5 -146.5t-155 -122t-131 -74.5t-114.5 -29.5q-33 0 -57 12 q-98 41 -98 221v14q4 301 192 1065q-414 -117 -467 -168q-10 -10 -27 -10q-16 0 -27 11.5t-11 27.5z" />
<glyph unicode="F" horiz-adv-x="1593" d="M103.5 1373q2.5 16 17.5 26q420 283 1046 506q16 78 27 135q4 16 17.5 25.5t29.5 6t25.5 -16.5t5.5 -30q-8 -41 -17 -90q86 29 166 54q182 57 352.5 97t326.5 58q56 7 98 7q76 0 108 -21q39 -20 39 -62q0 -39 -55.5 -92t-218.5 -141q-14 -8 -30 -3t-24 19.5t-3 29.5 t20 24q193 104 229 157q-20 8 -64 8q-69 0 -199 -20q-212 -32 -532 -129q-113 -35 -231 -76q-45 -211 -172 -796q-102 -469 -156 -721q232 67 431 67h28q16 0 27.5 -12t11.5 -28.5t-12.5 -28t-28.5 -11.5h-21q-210 0 -454 -75q-209 -977 -240 -1252q4 10 8 19q6 16 21.5 22 t31 0t21.5 -21.5t0 -29.5q-37 -86 -60.5 -122t-49.5 -36q-8 0 -17 4q-31 10 -36 58q-1 9 -1 22q0 55 17 178q27 184 94 533q49 246 123 596q-299 -111 -537 -307q-10 -8 -24 -8q-18 0 -31 14q-10 12 -8 28.5t14 26.5q266 221 606 336q53 256 164 766q119 545 162 748 q-588 -215 -985 -482q-10 -6 -23 -6q-20 0 -32 16q-8 14 -5.5 30z" />
<glyph unicode="G" horiz-adv-x="1898" d="M108 -363q-5 60 -5 126q0 270 100 640q94 346 320.5 787.5t453.5 683.5q94 100 187 133q43 15 81 15q45 0 84 -21q31 -18 56.5 -50t48 -101.5t25.5 -165.5v-25q0 -91 -19 -229q-21 -158 -74 -353q-4 -16 -18.5 -24.5t-29.5 -4t-23.5 18.5t-4.5 31q68 252 84 439 q6 73 6 132q0 91 -15 145q-24 91 -75 117q-21 13 -47 13q-30 0 -67 -17q-68 -31 -142 -106q-221 -236 -442 -667t-313 -771q-99 -364 -99 -622q0 -63 6 -119q27 -256 158 -304q26 -10 57 -10q13 0 27 2q47 6 99.5 31t110.5 70t120 106q270 274 542 823q-84 -8 -262 -26 q-303 -31 -446 -51h-4q-14 0 -25.5 10t-13.5 24q-2 10 2 20.5t12 16.5t19 8q145 18 448 50q213 23 311 32q0 2 2.5 7.5t4.5 7.5q14 33 49 20q16 -6 24 -24q264 35 353 75q14 6 29.5 0t22.5 -20t1 -29.5t-21 -21.5q-104 -47 -399 -86q-78 -346 -153.5 -776.5t-98.5 -643.5 q16 8 33 3q10 -4 17 -12.5t8 -17.5t-1 -22q-27 -72 -45 -103.5t-45 -31.5q-6 0 -14 2q-31 10 -36 55q-1 12 -1 30q0 50 10 145q18 162 64 434q59 354 135 715q-262 -479 -519 -717q-199 -184 -357 -184q-46 0 -89 16q-176 66 -207 372z" />
<glyph unicode="H" horiz-adv-x="1742" d="M-829 -82q0 33 43 66.5t174 89.5q172 72 493 180q176 57 406 131q104 506 241 1157l11 41q16 78 16 128t-4 59.5t-8 11.5t-13.5 0t-34 -16.5t-53.5 -39.5q-72 -61 -150.5 -165.5t-139.5 -217.5q-43 -82 -70 -153.5t-34 -125.5q-2 -18 -2 -34q0 -32 9 -55q21 -50 99 -50 q9 0 18 1q16 2 28.5 -9.5t13.5 -28t-9 -28.5t-27 -12q-13 -1 -25 -1q-131 0 -171 99q-15 36 -15 84q-1 49 15 110q32 122 101 242.5t151.5 230t154.5 173.5q88 75 148 75q25 0 45 -12q52 -30 52 -130q0 -62 -20 -150l-8 -43q-131 -625 -233 -1114q279 86 811 247q6 2 14 4.5 t16.5 5.5t14.5 3q209 1096 276 1360q4 16 18.5 24t30 4t23.5 -18t4 -29q-66 -258 -268 -1315q336 100 469 144q14 4 29.5 -3.5t19.5 -21.5q2 -12 0 -21.5t-8 -17.5t-17 -12q-137 -43 -510 -156q-29 -158 -82 -438q-43 -219 -62 -325.5t-43 -227.5t-36 -174q-6 -31 -39 -31 h-8q-14 4 -23.5 17.5t-5.5 29.5q23 115 140 725q49 266 75 400q-2 0 -3 -1t-3 -1q-561 -170 -850 -260q-238 -1153 -276 -1452q12 -6 19 -20.5t1 -29.5q-10 -29 -16 -43t-18.5 -27.5t-26.5 -13.5q-6 0 -14 2q-29 6 -32 43q-1 7 -1 16q0 34 10 87q12 94 43 268 q55 301 164 840q29 143 61 303q-178 -57 -319 -104q-559 -184 -680 -265q20 -14 16 -39q-6 -33 -39 -32q-4 0 -8 2q-66 12 -69 59z" />
<glyph unicode="I" horiz-adv-x="1050" d="M104 616q-2 25 -1 49q-1 37 3 71q6 60 22.5 124t36 121t45.5 117.5t48.5 106.5t46.5 93q111 205 253 389.5t265 280.5q103 79 174 79q33 0 60 -17q59 -39 60 -162q0 -92 -34 -232q-129 -537 -344 -1503.5t-258 -1254.5v-2q16 -4 22.5 -19.5t2.5 -30.5q-12 -31 -19.5 -46 t-20.5 -30.5t-28 -15.5q-8 0 -14 2q-29 10 -32 46q-1 6 -1 14q0 35 12 98q16 100 54 291q66 328 192 901q207 938 357 1569q28 117 30 193q0 12 1 22q0 56 -7 70q-8 18 -16 24q-8 5 -19 5q-41 0 -123 -64q-113 -88 -246.5 -262.5t-245.5 -374t-168 -405.5q-32 -117 -31 -208 q0 -71 18 -127q59 -176 317 -180q16 0 27.5 -11t11.5 -27.5t-11.5 -28t-27.5 -11.5q-59 0 -113.5 10.5t-110.5 35t-100.5 72.5t-66.5 116q-17 52 -21 112z" />
<glyph unicode="&#xce;" horiz-adv-x="1050" d="M104 616q-2 25 -1 49q-1 37 3 71q6 60 22.5 124t36 121t45.5 117.5t48.5 106.5t46.5 93q111 205 253 389.5t265 280.5q103 79 174 79q33 0 60 -17q59 -39 60 -162q0 -92 -34 -232q-129 -537 -344 -1503.5t-258 -1254.5v-2q16 -4 22.5 -19.5t2.5 -30.5q-12 -31 -19.5 -46 t-20.5 -30.5t-28 -15.5q-8 0 -14 2q-29 10 -32 46q-1 6 -1 14q0 35 12 98q16 100 54 291q66 328 192 901q207 938 357 1569q28 117 30 193q0 12 1 22q0 56 -7 70q-8 18 -16 24q-8 5 -19 5q-41 0 -123 -64q-113 -88 -246.5 -262.5t-245.5 -374t-168 -405.5q-32 -117 -31 -208 q0 -71 18 -127q59 -176 317 -180q16 0 27.5 -11t11.5 -27.5t-11.5 -28t-27.5 -11.5q-59 0 -113.5 10.5t-110.5 35t-100.5 72.5t-66.5 116q-17 52 -21 112z" />
<glyph unicode="&#xcd;" horiz-adv-x="1050" d="M104 616q-2 25 -1 49q-1 37 3 71q6 60 22.5 124t36 121t45.5 117.5t48.5 106.5t46.5 93q111 205 253 389.5t265 280.5q103 79 174 79q33 0 60 -17q59 -39 60 -162q0 -92 -34 -232q-129 -537 -344 -1503.5t-258 -1254.5v-2q16 -4 22.5 -19.5t2.5 -30.5q-12 -31 -19.5 -46 t-20.5 -30.5t-28 -15.5q-8 0 -14 2q-29 10 -32 46q-1 6 -1 14q0 35 12 98q16 100 54 291q66 328 192 901q207 938 357 1569q28 117 30 193q0 12 1 22q0 56 -7 70q-8 18 -16 24q-8 5 -19 5q-41 0 -123 -64q-113 -88 -246.5 -262.5t-245.5 -374t-168 -405.5q-32 -117 -31 -208 q0 -71 18 -127q59 -176 317 -180q16 0 27.5 -11t11.5 -27.5t-11.5 -28t-27.5 -11.5q-59 0 -113.5 10.5t-110.5 35t-100.5 72.5t-66.5 116q-17 52 -21 112z" />
<glyph unicode="&#xcc;" horiz-adv-x="1050" d="M104 616q-2 25 -1 49q-1 37 3 71q6 60 22.5 124t36 121t45.5 117.5t48.5 106.5t46.5 93q111 205 253 389.5t265 280.5q103 79 174 79q33 0 60 -17q59 -39 60 -162q0 -92 -34 -232q-129 -537 -344 -1503.5t-258 -1254.5v-2q16 -4 22.5 -19.5t2.5 -30.5q-12 -31 -19.5 -46 t-20.5 -30.5t-28 -15.5q-8 0 -14 2q-29 10 -32 46q-1 6 -1 14q0 35 12 98q16 100 54 291q66 328 192 901q207 938 357 1569q28 117 30 193q0 12 1 22q0 56 -7 70q-8 18 -16 24q-8 5 -19 5q-41 0 -123 -64q-113 -88 -246.5 -262.5t-245.5 -374t-168 -405.5q-32 -117 -31 -208 q0 -71 18 -127q59 -176 317 -180q16 0 27.5 -11t11.5 -27.5t-11.5 -28t-27.5 -11.5q-59 0 -113.5 10.5t-110.5 35t-100.5 72.5t-66.5 116q-17 52 -21 112z" />
<glyph unicode="J" horiz-adv-x="1597" d="M106 -444q17 231 103 446q154 377 489 623q215 156 498 249q86 381 147 633q33 133 39 225q3 38 3 65q0 40 -5 57q-10 30 -22 34q-5 1 -10 1q-23 0 -60 -29q-45 -35 -96 -108t-82 -157q-14 -39 -22.5 -76.5t-8.5 -82.5t23.5 -83t68.5 -59q14 -6 20.5 -21.5t0.5 -29.5 t-21.5 -20t-31.5 0q-100 45 -128 151q-10 37 -10 78q0 78 35 172q51 139 156 253q84 92 155 92q17 0 33 -5q83 -25 83 -180q0 -113 -44 -295q-57 -238 -137 -588q195 55 418 80q14 2 27.5 -8.5t15.5 -26.5q0 -10 -4 -19t-12.5 -15.5t-18.5 -8.5q-240 -27 -446 -90 q-229 -1010 -359 -1632q-43 -195 -123 -312.5t-188 -144.5q-29 -8 -60 -8q-143 0 -264 145q-88 106 -133 285q-33 132 -33 290q0 59 4 120zM192 -392q-10 -81 -10 -161q0 -116 20 -229q34 -193 126 -305q57 -70 122 -99q43 -19 84 -19q20 0 39 5q86 20 150.5 122.5 t101.5 274.5q125 596 351 1587q-190 -68 -345 -164t-259.5 -207.5t-173 -218t-115.5 -223.5q-68 -166 -91 -363z" />
<glyph unicode="K" horiz-adv-x="1654" d="M117 487q29 38 89 37q64 0 163 -43q49 -23 100 -61q66 279 193 805q109 453 145 606q2 16 16.5 24.5t29.5 5.5t24.5 -17.5t5.5 -31.5q-35 -150 -146 -606q-129 -535 -200 -839q133 23 272 84q59 29 120.5 64.5t138.5 91t150.5 130t153.5 168.5t157 219t148.5 270.5 t137 331t118.5 392.5q4 16 18.5 24t30 4t23.5 -18.5t4 -28.5q-61 -244 -142 -458t-165 -372.5t-180.5 -294.5t-184.5 -229.5t-182 -169t-168 -119.5t-147 -77q-129 -57 -250 -84q106 -127 315 -479q61 -104 94 -158.5t91.5 -145t99.5 -141.5t94 -108.5t103.5 -88t99.5 -40.5 q25 -6 50 -6q76 0 153 53q14 10 29.5 7t24.5 -16.5t7 -29.5t-16 -25q-97 -67 -196 -67h-3q-33 0 -66 6q-43 10 -87 31.5t-87 58.5t-79.5 73t-80.5 95t-75 102t-78 118t-72.5 118t-74.5 125q-213 360 -322 487q-219 -938 -252 -1202q8 18 19 41q6 14 21 20.5t30.5 0 t20.5 -21.5t-1 -32q-41 -92 -66.5 -130t-54.5 -38q-8 0 -16 2q-33 12 -36 64v12q0 57 22 205q35 201 114 569q49 223 119 522q-35 0 -65 3q-172 12 -242 100q-26 33 -26 63q0 23 16 45zM182 440q6 -19 37 -39q75 -47 193 -47h10q-43 37 -86 56q-83 35 -126 35q-17 0 -28 -5z " />
<glyph unicode="L" horiz-adv-x="1388" d="M123 -631q154 674 426 1626q66 229 120 407.5t92 294t70.5 194.5t50 118t36 57.5t26.5 19.5t23 -1q37 -3 45 -57q4 -24 4 -59q0 -44 -6 -105q-2 -16 -14.5 -26.5t-29 -9.5t-27.5 13t-9 29q4 37 6 67q-106 -244 -328 -1024q-262 -924 -407 -1562q-21 -87 -20 -143 q0 -66 28 -89q14 -10 36.5 -12t54.5 6t62.5 17.5t77.5 32t80 39t89.5 47t87 48t89.5 50.5q115 66 175.5 98.5t168 86.5t179 82t156.5 48q77 19 141 19h12q16 0 27.5 -11.5t11.5 -27.5q0 -10 -6 -19.5t-15.5 -14.5t-19.5 -5h-11q-70 1 -156 -23q-93 -26 -212 -83.5 t-196.5 -99.5t-215.5 -118q-156 -88 -233.5 -130t-176 -81t-161.5 -39q-55 0 -92 27q-59 45 -59 158q0 66 20 155z" />
<glyph unicode="M" horiz-adv-x="2594" d="M47 662q-21 62 -21 136q0 196 148 472q84 154 194.5 293t219.5 223q115 89 196 89q38 0 68 -20q69 -44 69 -183q0 -101 -36 -251q-88 -375 -248 -1082.5t-250 -1153.5q244 782 520 1417q63 145 123 268t106 209t90 152.5t74.5 107.5t61.5 70t49.5 41t38.5 16t28.5 3 t20.5 -3q23 -4 41.5 -19t35.5 -51t27.5 -91.5t13.5 -147.5q1 -34 2 -73q0 -64 -4 -139q-5 -120 -22.5 -291t-46.5 -380q98 301 201.5 564.5t203 470.5t190.5 355t172 223q75 69 134 69h9q96 -11 108 -189q1 -23 2 -51q0 -124 -30 -352q-36 -278 -73.5 -501.5t-115.5 -643.5 q-168 -929 -168 -1107v-11q8 14 19 31q8 14 23 18t29.5 -4t18.5 -23.5t-4 -29.5q-31 -53 -59 -81q-19 -20 -42 -20q-10 0 -20 4q-20 8 -30.5 30t-12.5 78v22q1 49 7 115q8 81 30.5 225.5t53 320.5t79.5 444q74 408 112 628q37 219 73 501q30 241 31 363q0 21 -1 38 q-8 113 -41 117h-2q-14 0 -35.5 -14.5t-57.5 -51t-77 -93t-96 -149.5t-115 -212q-311 -623 -600 -1620q-4 -16 -17 -23.5t-28.5 -4.5t-25 16.5t-7.5 27.5q143 844 154 1268q1 28 1 54q0 65 -4 118q-5 74 -12 108.5t-18.5 57t-15.5 26t-8 5.5h-4q-39 0 -121 -109 q-154 -203 -377 -713q-170 -389 -338 -867t-297 -937v-2q-10 -25 -15 -37t-13.5 -28.5t-18.5 -22.5t-23 -6q-6 0 -14 2q-27 8 -30 44q-1 7 -1 15q0 34 11 90q14 96 49 277q61 309 180 848q193 877 340 1495q12 57 20.5 106t11.5 84t1 62.5t-5 44t-8.5 29t-10.5 16.5t-9 8 q-11 7 -27 7q-50 0 -147 -75q-57 -45 -117.5 -108.5t-118 -139t-108.5 -159.5t-90 -169t-65 -169q-24 -85 -28 -157q-1 -11 -1 -22q0 -60 16 -112q59 -176 340 -180q10 0 19.5 -5t14.5 -14.5t5 -21.5q0 -16 -12.5 -27.5t-26.5 -11.5h-2q-63 2 -120.5 12.5t-118 35 t-106.5 72.5t-69 116z" />
<glyph unicode="N" horiz-adv-x="2291" d="M-9 530v8q-1 68 15 139q16 75 41 148.5t59.5 147.5t64.5 132t65 114q129 221 293.5 419.5t308.5 311.5q139 107 228 107q38 0 67 -19q65 -41 65 -168q0 -87 -31 -213q-88 -375 -263 -1162.5t-269 -1262.5q135 428 287.5 802t298 646t285.5 466q138 194 258 286 q107 82 192 82q10 0 20 -1q166 -23 174 -335q0 -11 1 -23q0 -113 -18 -297q-19 -203 -38.5 -347t-58.5 -407q-76 -526 -78 -649q8 16 18 35q6 14 21.5 19.5t30 -2t19.5 -22.5t-1 -32q-38 -71 -64 -99q-20 -21 -42 -21q-8 0 -17 3q-27 8 -37 36q-7 20 -7 72q0 21 1 46 q4 90 21.5 227.5t56.5 397.5q37 260 57.5 403.5t40.5 343.5q16 166 16 272q0 22 -1 42q-6 246 -105 258q-6 1 -13 1q-83 -1 -227 -143q-156 -154 -348 -489q-440 -762 -780 -1974q-2 0 -2 -3q-8 -25 -13 -36t-13.5 -26t-18.5 -22.5t-23 -7.5q-6 0 -14 4q-27 8 -30 45 q-1 7 -1 15q0 36 11 96q16 102 53 295q63 332 188 905q217 997 357 1581q24 106 26 178q0 9 1 19q0 54 -8 72q-9 20 -19 28q-9 5 -23 5q-21 0 -52 -11q-52 -18 -130 -80q-143 -111 -303 -306.5t-286 -406t-190 -417.5q-39 -126 -38 -221q0 -61 16 -109q53 -158 291 -162 q16 0 27.5 -12t11.5 -28.5t-11.5 -28t-27.5 -11.5q-295 6 -367 217q-18 57 -19 129z" />
<glyph unicode="O" horiz-adv-x="1882" d="M127 -489q-26 141 -26 305q0 371 135 858q35 125 79.5 245.5t103 239.5t124 213t144.5 165t161 97q37 12 72 17q115 166 247 219q59 23 116 24q115 0 218 -98q98 -92 160.5 -257t86.5 -381q9 -85 9 -179q0 -145 -22 -313q-37 -276 -136 -562q-98 -289 -225 -511 t-258 -353t-259 -196.5t-247 -65.5q-63 0 -118 16q-137 43 -231.5 176.5t-133.5 340.5zM182 -297q12 -178 57.5 -313t115 -213t159.5 -107q46 -14 95 -14q70 0 147 28q131 50 266 175t268.5 350t235.5 520q92 273 128 537q23 172 23 318q-1 80 -7 152q-20 206 -77 362.5 t-145 240.5q-80 75 -166 75q-42 0 -86 -18q-94 -37 -182 -151q72 -16 139 -70q12 -10 14 -26.5t-8 -29t-25.5 -14.5t-29.5 8q-70 53 -139 58q-160 -252 -271.5 -745.5t-144.5 -1233.5q0 -16 -12.5 -27t-28.5 -10t-27.5 13t-9.5 26q18 444 71.5 820.5t133.5 663t186 478.5 q-154 -59 -303 -303.5t-248 -599.5q-77 -281 -109 -527q-23 -176 -23 -316q-1 -56 3 -107z" />
<glyph unicode="&#xd5;" horiz-adv-x="1882" d="M127 -489q-26 141 -26 305q0 371 135 858q35 125 79.5 245.5t103 239.5t124 213t144.5 165t161 97q37 12 72 17q115 166 247 219q59 23 116 24q115 0 218 -98q98 -92 160.5 -257t86.5 -381q9 -85 9 -179q0 -145 -22 -313q-37 -276 -136 -562q-98 -289 -225 -511 t-258 -353t-259 -196.5t-247 -65.5q-63 0 -118 16q-137 43 -231.5 176.5t-133.5 340.5zM182 -297q12 -178 57.5 -313t115 -213t159.5 -107q46 -14 95 -14q70 0 147 28q131 50 266 175t268.5 350t235.5 520q92 273 128 537q23 172 23 318q-1 80 -7 152q-20 206 -77 362.5 t-145 240.5q-80 75 -166 75q-42 0 -86 -18q-94 -37 -182 -151q72 -16 139 -70q12 -10 14 -26.5t-8 -29t-25.5 -14.5t-29.5 8q-70 53 -139 58q-160 -252 -271.5 -745.5t-144.5 -1233.5q0 -16 -12.5 -27t-28.5 -10t-27.5 13t-9.5 26q18 444 71.5 820.5t133.5 663t186 478.5 q-154 -59 -303 -303.5t-248 -599.5q-77 -281 -109 -527q-23 -176 -23 -316q-1 -56 3 -107z" />
<glyph unicode="&#xd4;" horiz-adv-x="1882" d="M127 -489q-26 141 -26 305q0 371 135 858q35 125 79.5 245.5t103 239.5t124 213t144.5 165t161 97q37 12 72 17q115 166 247 219q59 23 116 24q115 0 218 -98q98 -92 160.5 -257t86.5 -381q9 -85 9 -179q0 -145 -22 -313q-37 -276 -136 -562q-98 -289 -225 -511 t-258 -353t-259 -196.5t-247 -65.5q-63 0 -118 16q-137 43 -231.5 176.5t-133.5 340.5zM182 -297q12 -178 57.5 -313t115 -213t159.5 -107q46 -14 95 -14q70 0 147 28q131 50 266 175t268.5 350t235.5 520q92 273 128 537q23 172 23 318q-1 80 -7 152q-20 206 -77 362.5 t-145 240.5q-80 75 -166 75q-42 0 -86 -18q-94 -37 -182 -151q72 -16 139 -70q12 -10 14 -26.5t-8 -29t-25.5 -14.5t-29.5 8q-70 53 -139 58q-160 -252 -271.5 -745.5t-144.5 -1233.5q0 -16 -12.5 -27t-28.5 -10t-27.5 13t-9.5 26q18 444 71.5 820.5t133.5 663t186 478.5 q-154 -59 -303 -303.5t-248 -599.5q-77 -281 -109 -527q-23 -176 -23 -316q-1 -56 3 -107z" />
<glyph unicode="&#xd3;" horiz-adv-x="1882" d="M127 -489q-26 141 -26 305q0 371 135 858q35 125 79.5 245.5t103 239.5t124 213t144.5 165t161 97q37 12 72 17q115 166 247 219q59 23 116 24q115 0 218 -98q98 -92 160.5 -257t86.5 -381q9 -85 9 -179q0 -145 -22 -313q-37 -276 -136 -562q-98 -289 -225 -511 t-258 -353t-259 -196.5t-247 -65.5q-63 0 -118 16q-137 43 -231.5 176.5t-133.5 340.5zM182 -297q12 -178 57.5 -313t115 -213t159.5 -107q46 -14 95 -14q70 0 147 28q131 50 266 175t268.5 350t235.5 520q92 273 128 537q23 172 23 318q-1 80 -7 152q-20 206 -77 362.5 t-145 240.5q-80 75 -166 75q-42 0 -86 -18q-94 -37 -182 -151q72 -16 139 -70q12 -10 14 -26.5t-8 -29t-25.5 -14.5t-29.5 8q-70 53 -139 58q-160 -252 -271.5 -745.5t-144.5 -1233.5q0 -16 -12.5 -27t-28.5 -10t-27.5 13t-9.5 26q18 444 71.5 820.5t133.5 663t186 478.5 q-154 -59 -303 -303.5t-248 -599.5q-77 -281 -109 -527q-23 -176 -23 -316q-1 -56 3 -107z" />
<glyph unicode="&#xd2;" horiz-adv-x="1882" d="M127 -489q-26 141 -26 305q0 371 135 858q35 125 79.5 245.5t103 239.5t124 213t144.5 165t161 97q37 12 72 17q115 166 247 219q59 23 116 24q115 0 218 -98q98 -92 160.5 -257t86.5 -381q9 -85 9 -179q0 -145 -22 -313q-37 -276 -136 -562q-98 -289 -225 -511 t-258 -353t-259 -196.5t-247 -65.5q-63 0 -118 16q-137 43 -231.5 176.5t-133.5 340.5zM182 -297q12 -178 57.5 -313t115 -213t159.5 -107q46 -14 95 -14q70 0 147 28q131 50 266 175t268.5 350t235.5 520q92 273 128 537q23 172 23 318q-1 80 -7 152q-20 206 -77 362.5 t-145 240.5q-80 75 -166 75q-42 0 -86 -18q-94 -37 -182 -151q72 -16 139 -70q12 -10 14 -26.5t-8 -29t-25.5 -14.5t-29.5 8q-70 53 -139 58q-160 -252 -271.5 -745.5t-144.5 -1233.5q0 -16 -12.5 -27t-28.5 -10t-27.5 13t-9.5 26q18 444 71.5 820.5t133.5 663t186 478.5 q-154 -59 -303 -303.5t-248 -599.5q-77 -281 -109 -527q-23 -176 -23 -316q-1 -56 3 -107z" />
<glyph unicode="P" horiz-adv-x="1806" d="M132 1243q68 205 286 395q236 205 557 330q8 41 16 74q2 14 16.5 23.5t30 6t24.5 -17.5t5 -31q-2 -6 -4 -22q51 16 102 31q187 50 346 51q27 0 53 -2q180 -10 296 -90q55 -37 95 -93q39 -57 65 -144q16 -55 17 -129q1 -42 -5 -89q-14 -131 -72 -293q-188 -522 -500 -819 q-125 -119 -257 -184.5t-251 -65.5q-12 0 -24 2q-186 12 -264 176q-258 -1071 -297 -1362q4 8 8 19q6 14 21.5 20t29.5 -1t20.5 -22.5t-0.5 -29.5q-39 -84 -63.5 -120t-50.5 -36q-8 0 -17 4q-31 10 -35 58q-1 6 -1 15q0 54 24 190q31 186 109 534q96 430 348 1458 q143 588 192 795q-281 -119 -481 -295q-102 -90 -167.5 -180t-91.5 -161q-26 -70 -29 -140q-1 -14 -1 -28q0 -51 10 -88q12 -46 31 -89q8 -14 3 -29.5t-19 -22.5t-29.5 -2t-23.5 19q-51 102 -51 212q-1 84 29 173zM694 479q14 -8 19 -24q20 -92 76.5 -143.5t142.5 -57.5 q10 -1 19 -1q96 1 210 55q125 60 246 173q297 283 477 789q27 74 44 142q18 68 25 146q3 34 3 66q0 40 -5 76q-9 64 -43 125t-93 102q-99 68 -265 75q-19 1 -40 1q-150 0 -324 -47q-72 -20 -146 -47q-47 -211 -202 -848q-92 -371 -144 -582z" />
<glyph unicode="Q" horiz-adv-x="1869" d="M108 112q-8 63 -8 130q0 233 86 512q88 283 259 532.5t386 364.5q145 244 322 299q49 15 96 15q133 0 248 -122q94 -100 153.5 -269t71.5 -376q5 -67 5 -134q0 -421 -177 -882q-76 -197 -174 -352q438 -430 615 -582l4 4q14 10 29.5 8t25.5 -14q37 -47 47 -69.5t2 -40.5 q-10 -23 -35 -25q-4 -2 -6 -2q-16 0 -53 26.5t-184.5 161t-403.5 384.5q-41 41 -84 81q-117 -166 -250 -262q-172 -125 -356 -125q-84 0 -164 29q-180 61 -302 243.5t-153 464.5zM231 -106q49 -156 142.5 -265.5t214.5 -150.5q71 -25 143 -25q106 0 213 54q180 90 332 313 q-432 424 -459 463q-10 14 -7 30.5t16.5 25.5t29.5 6t25 -15q39 -49 438 -443q88 143 158 322q80 209 122.5 417t48.5 382q1 33 1 65q0 138 -19 263q-24 153 -72.5 266.5t-117.5 187.5q-90 96 -192 96q-35 0 -72 -12q-113 -35 -215 -168q4 0 6 2q79 22 157 22 q221 0 430 -180q12 -10 13.5 -26.5t-9 -28.5t-26.5 -13t-29 9q-187 161 -379 161q-67 0 -135 -20q-51 -14 -102 -41q-205 -358 -307 -1038q-2 -16 -15.5 -25.5t-30 -7.5t-25.5 15.5t-7 29.5q88 582 254 944q-162 -127 -292 -339t-202 -439q-82 -263 -82 -494q0 -182 51 -343 z" />
<glyph unicode="R" horiz-adv-x="1886" d="M156 858q-55 110 -55 224q0 140 83 286q98 172 296 325.5t442.5 252t478.5 114.5q38 2 73 3q316 0 441 -203q68 -109 68 -264q1 -52 -7 -106q-30 -224 -174 -466q-193 -328 -493 -532q-156 -109 -322 -164q68 -63 144.5 -155.5t122.5 -155t126 -175.5q66 -90 98.5 -136 t90 -116.5t95.5 -105.5t85 -62.5t86 -29.5h3q85 0 173 106q10 12 25.5 14.5t29 -8t14.5 -27t-9 -30.5q-109 -133 -230 -133h-8q-43 0 -86 17.5t-89 55.5t-81 72.5t-87 102t-83 108.5t-90 127q-86 119 -134 184.5t-130 162t-156 159.5q-117 -29 -231 -29h-15 q-250 -1022 -289 -1298q6 14 15 33q6 14 21.5 20t30.5 -1t20.5 -22.5t-0.5 -29.5q-20 -47 -36 -75.5t-30 -51.5t-27.5 -33t-27.5 -10q-8 0 -17 4q-18 6 -26.5 21.5t-8.5 65.5t16.5 144.5t50.5 256t89 401.5t139 582q-104 12 -165.5 53t-77.5 94q-7 21 -7 39q0 46 44 80 q45 36 116 36q67 0 156 -32q27 104 51 211q176 717 223 926q4 16 17.5 25t30 5t24.5 -17t6 -30q-47 -211 -223 -928q-39 -152 -55 -225q51 -25 104 -55q49 -31 100 -72q225 63 440.5 229t379.5 445q131 221 161 424q9 57 9 108q0 131 -56 222q-104 164 -374 164 q-34 0 -70 -3q-162 -10 -340 -68.5t-332.5 -146.5t-282.5 -202.5t-196 -233.5q-73 -128 -73 -248q0 -96 46 -188q6 -14 1 -29.5t-19 -22.5t-29.5 -2t-23.5 19zM401 451q6 -20 29 -39t65 -34.5t95 -21.5q14 57 28 115q-84 33 -139 33q-43 0 -67 -19q-17 -14 -11 -34zM670 354 q72 0 145 15q-20 14 -41 26q-39 23 -84 45q-14 -59 -20 -86z" />
<glyph unicode="S" horiz-adv-x="1921" d="M121 942q53 172 258 374t447.5 353.5t489.5 241.5q184 67 305 67q42 0 77 -8q31 -6 56.5 -19.5t52 -40t37.5 -72.5q6 -27 6 -59q0 -24 -3 -50q-2 -10 -8 -18.5t-16.5 -12.5t-20.5 -2q-16 2 -26.5 15t-8.5 30q4 25 4 45q0 42 -17 64q-25 32 -73 42q-28 7 -64 7 q-61 1 -141 -19q-128 -30 -287 -103t-323 -180q-264 -166 -444 -348t-225 -329q-15 -46 -15 -87q0 -146 189 -225q55 -23 164 -65q135 -55 200.5 -83t172 -74t163.5 -79t125 -76t111 -85t71 -89q258 201 568 420q14 10 29.5 7t25.5 -16t7 -28.5t-17 -25.5 q-317 -227 -580 -430q15 -47 16 -100q0 -41 -10 -85q-33 -166 -120 -323.5t-198.5 -276.5t-235.5 -211t-235.5 -141t-195.5 -55q-12 -2 -22 -2q-98 0 -125 73q-7 19 -7 42q0 131 226 382q266 295 811 721q-61 113 -241.5 208t-569.5 253q-106 43 -164 68q-146 61 -204 165 q-33 60 -33 130q0 52 18 110zM358 -1110q7 -21 49 -21q9 0 19 1q70 6 171 51t217 131t221.5 195.5t189 260t116.5 308.5q7 33 7 64q0 26 -5 50q-436 -342 -692 -602q-149 -154 -229 -274q-66 -99 -67 -147q0 -9 3 -17z" />
<glyph unicode="T" horiz-adv-x="1110" d="M-10 1470q0 33 43 67t172 87q168 72 487 178q391 131 1293 404q471 141 616 188q14 4 29.5 -3t19.5 -22.5t-3 -30t-21 -20.5q-145 -45 -619 -188q-543 -164 -823 -252q-68 -266 -271 -1178q-209 -948 -299 -1316q-72 -299 -116 -451q-35 -119 -55.5 -159t-49.5 -40h-8 q-37 6 -43 62q-2 15 -2 40q0 69 12 214q2 16 14.5 26.5t28.5 8.5q10 0 19.5 -6.5t13.5 -16.5t2 -20q-4 -45 -6 -82q96 336 414 1759q190 860 258 1130q-186 -57 -334 -106q-553 -184 -672 -262q20 -14 16 -39q-6 -33 -38 -33q-4 0 -9 2q-66 12 -69 59z" />
<glyph unicode="U" horiz-adv-x="1794" d="M113 142q49 620 313 1466q4 16 18.5 23t31 2t23.5 -19.5t3 -28.5q-141 -453 -222 -842q-80 -389 -94 -659q-4 -85 -4 -161q0 -165 20 -287q30 -178 101 -254q45 -48 107 -49q19 0 39 5q92 23 205.5 133.5t246.5 322.5t269.5 504t285 704.5t285.5 898.5v2q10 27 16 40 t20.5 23t32.5 4q25 -6 28 -32.5t-3 -53.5q-8 -41 -25 -119q-23 -100 -92 -409q-78 -338 -125 -550t-120.5 -558t-117.5 -613.5t-59 -445.5q-3 -38 -3 -70q0 -16 1 -31q2 -44 7.5 -77t14.5 -54.5t16 -32.5t14 -14q8 -2 22 9.5t41 56.5t51 117q6 16 20.5 23t30 2t22.5 -20.5 t1 -29.5q-82 -237 -183 -237h-1q-10 0 -21 2q-63 13 -93 111q-21 68 -21 164q0 41 4 87q39 498 368 1944q-242 -705 -493 -1172q-113 -207 -221.5 -357.5t-211 -238.5t-194.5 -110q-32 -8 -62 -8q-91 0 -159 73q-143 154 -143 571q0 113 10 245z" />
<glyph unicode="&#xda;" horiz-adv-x="1794" d="M113 142q49 620 313 1466q4 16 18.5 23t31 2t23.5 -19.5t3 -28.5q-141 -453 -222 -842q-80 -389 -94 -659q-4 -85 -4 -161q0 -165 20 -287q30 -178 101 -254q45 -48 107 -49q19 0 39 5q92 23 205.5 133.5t246.5 322.5t269.5 504t285 704.5t285.5 898.5v2q10 27 16 40 t20.5 23t32.5 4q25 -6 28 -32.5t-3 -53.5q-8 -41 -25 -119q-23 -100 -92 -409q-78 -338 -125 -550t-120.5 -558t-117.5 -613.5t-59 -445.5q-3 -38 -3 -70q0 -16 1 -31q2 -44 7.5 -77t14.5 -54.5t16 -32.5t14 -14q8 -2 22 9.5t41 56.5t51 117q6 16 20.5 23t30 2t22.5 -20.5 t1 -29.5q-82 -237 -183 -237h-1q-10 0 -21 2q-63 13 -93 111q-21 68 -21 164q0 41 4 87q39 498 368 1944q-242 -705 -493 -1172q-113 -207 -221.5 -357.5t-211 -238.5t-194.5 -110q-32 -8 -62 -8q-91 0 -159 73q-143 154 -143 571q0 113 10 245z" />
<glyph unicode="&#xd9;" horiz-adv-x="1794" d="M113 142q49 620 313 1466q4 16 18.5 23t31 2t23.5 -19.5t3 -28.5q-141 -453 -222 -842q-80 -389 -94 -659q-4 -85 -4 -161q0 -165 20 -287q30 -178 101 -254q45 -48 107 -49q19 0 39 5q92 23 205.5 133.5t246.5 322.5t269.5 504t285 704.5t285.5 898.5v2q10 27 16 40 t20.5 23t32.5 4q25 -6 28 -32.5t-3 -53.5q-8 -41 -25 -119q-23 -100 -92 -409q-78 -338 -125 -550t-120.5 -558t-117.5 -613.5t-59 -445.5q-3 -38 -3 -70q0 -16 1 -31q2 -44 7.5 -77t14.5 -54.5t16 -32.5t14 -14q8 -2 22 9.5t41 56.5t51 117q6 16 20.5 23t30 2t22.5 -20.5 t1 -29.5q-82 -237 -183 -237h-1q-10 0 -21 2q-63 13 -93 111q-21 68 -21 164q0 41 4 87q39 498 368 1944q-242 -705 -493 -1172q-113 -207 -221.5 -357.5t-211 -238.5t-194.5 -110q-32 -8 -62 -8q-91 0 -159 73q-143 154 -143 571q0 113 10 245z" />
<glyph unicode="V" horiz-adv-x="1738" d="M119 1067q-16 54 -16.5 114.5t16.5 126.5q33 132 107.5 265t163.5 242.5t171 173.5q95 75 163 74q33 0 60 -17q59 -39 59 -158q0 -82 -28 -202q-10 -45 -43 -177q-391 -1575 -397 -1974q0 -63 4 -111.5t11 -74t16.5 -43t15.5 -21.5t12 -6q6 0 12.5 -1t19.5 5t28.5 14.5 t40 28t51 46t62.5 68.5t77 95q188 246 461 715q326 559 833 1565q66 129 84 167q8 14 23.5 19.5t30 -1.5t19.5 -22.5t-1 -29.5q-23 -43 -86 -168q-510 -1008 -836 -1571q-178 -307 -319 -518t-234.5 -312.5t-152 -140.5t-103.5 -39q-14 0 -28 4q-119 28 -119 315v19 q6 408 397 1991q33 131 43 176q17 66 23 118q6 45 5 72v8q-1 28 -6 47t-9.5 24t-8.5 7q-8 5 -19 5q-38 0 -114 -60q-82 -63 -167 -170.5t-149 -224.5t-94 -238q-15 -63 -16 -115q0 -47 13 -85q45 -137 268 -142q16 0 27.5 -12t11.5 -28.5t-11.5 -28t-27.5 -9.5 q-156 2 -236 57.5t-108 137.5z" />
<glyph unicode="W" horiz-adv-x="2373" d="M-9 -832q-1 9 -1 18q0 46 12 112q14 80 52 222t100 339q170 530 493 1374q45 117 86 215t72 166.5t59.5 123t48 88.5t39 57.5t30.5 33.5t24.5 14t18.5 4t15 -2q27 -6 41.5 -33.5t15.5 -71.5v-18q0 -38 -3 -86q0 -16 -12.5 -26t-29 -9t-26.5 13t-10 29q2 36 2 63t-2 45 q-94 -117 -295 -635q-104 -274 -193.5 -516t-153 -424t-114.5 -337.5t-83 -263t-54.5 -196t-33.5 -141.5t-16 -93t-4 -57.5t3 -27.5q72 35 262 320q244 360 661 1101q55 98 94 135q31 29 61 29l17 -2q53 -13 65 -115q9 -77 10 -252q0 -56 -1 -122q-2 -59 -2 -127 q0 -51 1 -105q3 -128 10 -239t33 -195t69 -104q13 -7 29 -7q49 0 128 62q172 137 339 413.5t276.5 564.5t169.5 549q45 195 44 314q0 40 -5 72q-8 53 -29 59q-4 1 -9 1q-30 0 -89 -54q-12 -10 -28.5 -9t-28 13t-10.5 28.5t13 26.5q84 75 148 75q16 0 31 -5q63 -23 79 -123 q6 -37 6 -84q0 -124 -44 -320q-60 -270 -171.5 -567t-285.5 -583.5t-356 -432.5q-100 -80 -178 -80q-34 0 -64 15q-55 27 -89 97.5t-48.5 194.5t-17.5 242q-1 51 -1 115q0 85 2 195q1 54 1 101q0 259 -19 304q-29 -27 -82 -119q-444 -791 -692 -1151 q-121 -174 -191.5 -243.5t-113.5 -69.5q-14 0 -29 6q-20 10 -31.5 28t-14.5 68z" />
<glyph unicode="X" horiz-adv-x="1753" d="M-250 -1274q-18 21 -18 59q0 50 32 128q158 367 996 1415q-39 133 -109 381q-240 831 -301 931q-16 -8 -33 -2q-14 6 -21 20.5t-1 31.5q17 43 54 43h3q29 -2 54.5 -37t69.5 -150.5t99.5 -298t151.5 -518.5q59 -207 94 -326q117 143 228 279q428 518 772 895 q164 182 264 278.5t122 108.5t40 14q16 0 28.5 -10t12.5 -26q2 -16 -8.5 -27.5t-24.5 -13.5q-61 -27 -406.5 -409t-781.5 -910q-111 -135 -219 -271q16 -55 18 -63q70 -236 135.5 -416t115.5 -288.5t96.5 -179.5t78 -97.5t60.5 -30.5q10 -1 19 -1q30 0 50 15q55 47 66 209 q0 18 12 28.5t28.5 9.5t28 -13t9.5 -29q-10 -199 -92 -264q-43 -35 -103 -35q-14 0 -31 2q-39 6 -74.5 28.5t-88 91.5t-106.5 180.5t-127 307t-152 459.5v4l-3 7q-393 -494 -643.5 -853.5t-316.5 -521.5q-19 -50 -18 -75v-9q8 -2 24 2t29.5 -4t17.5 -23.5t-4 -29.5t-24 -18 q-20 -6 -39 -7q-41 0 -64 29z" />
<glyph unicode="Y" horiz-adv-x="1941" d="M114 -966q25 137 118.5 308t246 344t405.5 362.5t574 357.5q125 549 193 1216q6 59 8 102q-20 -47 -72 -163q-57 -133 -93 -213t-108.5 -228.5t-134 -251t-145.5 -218t-164 -193.5q-221 -208 -367 -208q-30 0 -57 9q-109 33 -139 188q-11 58 -11 126q0 105 27 236 q45 214 158 428t264 341q12 10 28.5 9t27 -13t9.5 -28.5t-14 -26.5q-137 -117 -243.5 -318t-150.5 -402q-27 -124 -27 -224q0 -61 10 -113q23 -109 86 -129q16 -5 34 -5q111 0 310 187q66 61 131 144t125.5 185.5t108.5 188.5t103.5 205t84 182.5t76.5 171.5q86 199 116 249 q24 42 55 42q7 0 13 -2q33 -8 39 -60q2 -14 2 -35q0 -58 -12 -171q-63 -633 -181 -1163q184 92 387 174q14 6 29.5 -0.5t22 -20.5t0 -29.5t-20.5 -21.5q-233 -96 -440 -201q-154 -662 -381 -1104q-166 -326 -356.5 -510t-370.5 -194q-10 -2 -21 -2q-106 0 -181 64.5 t-101 179.5q-13 56 -13 119q0 61 12 129zM193 -1198q20 -90 77 -138q52 -43 124 -43q9 0 18 1q158 10 333.5 185t329.5 478q211 412 359 1018q-610 -330 -942 -725q-176 -209 -256 -414q-55 -141 -55 -258q0 -55 12 -104z" />
<glyph unicode="Z" horiz-adv-x="1636" d="M-188 -817q18 34 58.5 34t102.5 -34q14 -8 19.5 -23.5t-2.5 -30t-23.5 -19.5t-29.5 3q-25 14 -43 19q20 -27 59 -50q91 -51 193 -61q31 -3 61 -3q67 0 126 16q85 22 175 68t152.5 92t121.5 101q180 164 324 383q142 220 202 420q33 109 33 191q0 68 -22 117 q-43 96 -175 96q-18 0 -38 -2q-147 -14 -457 -125q-68 -25 -95.5 -34t-58 -15.5t-43 0t-20.5 22.5q-16 27 8.5 57.5t100.5 92.5q295 240 641 610q94 104 162.5 198.5t104.5 166t50 131.5q10 42 10 75q0 14 -2 26q-6 40 -28 64q-39 49 -129 55q-10 1 -21 1q-86 -1 -221 -47 q-152 -52 -328 -164q-188 -122 -292 -316q-77 -144 -78 -269q0 -45 10 -87q4 -16 -5 -29.5t-24.5 -17.5t-30 4t-18.5 25q-12 52 -12 105q0 142 82 299q114 216 325 351q275 174 493 213q57 10 105 10q137 0 205 -81q48 -58 48 -142q0 -75 -38 -171q-80 -204 -311 -453 q-350 -375 -647 -617q12 4 31 11q319 113 475 129q25 2 47 2q182 0 246 -142q29 -66 29 -150q0 -172 -120 -423q-82 -172 -203.5 -337t-260.5 -292q-330 -297 -637 -297q-152 0 -283 74q-66 37 -94 86q-17 29 -18 54q0 16 8 30z" />
<glyph unicode="[" horiz-adv-x="684" d="M104.5 -495.5q4.5 63.5 22.5 194.5q33 219 98 561q147 786 215 981q10 35 23.5 60.5t33 41t35 24.5t43 14t45 6.5t56.5 3.5q29 0 45 1t28.5 -10.5t13.5 -28t-10.5 -28.5t-27.5 -12q-18 0 -47 -2q-90 -2 -115.5 -15.5t-48.5 -78.5q-31 -90 -88 -353.5t-110.5 -546 t-94.5 -531.5t-41 -316q18 -2 46 0t54.5 8t43.5 12q16 6 30.5 0t21.5 -20.5t1 -29.5t-23 -22q-63 -29 -153 -28q-43 0 -68 10q-20 8 -26.5 24.5t-2 80z" />
<glyph unicode="\" horiz-adv-x="878" d="M46 1239q1 10 8 18.5t16 12.5q16 6 30.5 -1t20.5 -22q147 -389 315 -878q117 -349 191 -539q2 -10 1 -20.5t-8.5 -18.5t-17.5 -12q-6 -2 -12 -2q-29 0 -37 24q-74 193 -193 541q-166 487 -313 877q-2 10 -1 20z" />
<glyph unicode="]" horiz-adv-x="755" d="M-37 -539q-2 16 9.5 28.5t27.5 12.5q121 10 169 49t71 127q262 1040 323 1487q25 172 -8 203q-31 27 -180 -6q-16 -2 -29.5 6t-16.5 24.5t5 30t24 17.5q86 20 150.5 19t99.5 -34q37 -35 43 -103.5t-10 -166.5q-63 -451 -326 -1495q-20 -80 -57 -129t-97.5 -74.5 t-154.5 -31.5h-4q-14 0 -25.5 10t-13.5 26z" />
<glyph unicode="^" horiz-adv-x="661" d="M102 887q0 25 95 147q104 135 174 162q57 23 94 -16q33 -33 92 -275q4 -16 -4 -30.5t-23.5 -18.5t-30 5t-18.5 24q-49 195 -73 241q-25 -2 -98.5 -80.5t-133.5 -179.5q-10 -20 -35 -20q-16 0 -27.5 12t-11.5 29z" />
<glyph unicode="_" horiz-adv-x="974" d="M102 -104q0 16 10.5 27t26.5 14q45 2 512 2h180q16 0 28.5 -11.5t12.5 -27.5q0 -6 -2 -12.5t-5 -11.5t-8 -8t-11 -5l-12 -4h-183q-465 2 -508 0q0 -2 -2 -2q-14 0 -26.5 11t-12.5 28z" />
<glyph unicode="`" horiz-adv-x="370" d="M103.5 1108.5q5.5 15.5 20.5 23t30.5 2t21.5 -19.5l88 -170q6 -14 1 -29.5t-19 -23.5q-8 -4 -19 -4q-23 0 -34 22l-87 170q-8 14 -2.5 29.5z" />
<glyph unicode="a" horiz-adv-x="761" d="M-51 156q0 74 32.5 176t96 198.5t137.5 120.5q29 10 56 10q77 0 145 -81q10 -12 9 -28.5t-13.5 -27t-28.5 -9.5t-27 13q-45 53 -89 53q-28 0 -56 -20q-85 -59 -141 -213q-46 -126 -45 -193q0 -15 2 -28q12 10 28 27q82 88 201 252q27 37 37 51q16 20 42.5 13t29.5 -36 q4 -100 16 -178t24.5 -118t29 -66.5t25.5 -33.5t19 -7q4 -1 9 -1q27 0 64 28q44 34 112.5 131.5t140.5 246.5q8 16 23.5 21.5t29.5 -1.5t19.5 -22.5t-0.5 -30.5q-219 -452 -391 -452h-1q-10 0 -22 2q-137 27 -170 369q-100 -135 -178 -222q-53 -56 -95 -56q-13 0 -24 5 q-47 17 -47 100v7z" />
<glyph unicode="&#xe3;" horiz-adv-x="761" d="M-51 156q0 74 32.5 176t96 198.5t137.5 120.5q29 10 56 10q77 0 145 -81q10 -12 9 -28.5t-13.5 -27t-28.5 -9.5t-27 13q-45 53 -89 53q-28 0 -56 -20q-85 -59 -141 -213q-46 -126 -45 -193q0 -15 2 -28q12 10 28 27q82 88 201 252q27 37 37 51q16 20 42.5 13t29.5 -36 q4 -100 16 -178t24.5 -118t29 -66.5t25.5 -33.5t19 -7q4 -1 9 -1q27 0 64 28q44 34 112.5 131.5t140.5 246.5q8 16 23.5 21.5t29.5 -1.5t19.5 -22.5t-0.5 -30.5q-219 -452 -391 -452h-1q-10 0 -22 2q-137 27 -170 369q-100 -135 -178 -222q-53 -56 -95 -56q-13 0 -24 5 q-47 17 -47 100v7z" />
<glyph unicode="&#xe2;" horiz-adv-x="761" d="M-51 156q0 74 32.5 176t96 198.5t137.5 120.5q29 10 56 10q77 0 145 -81q10 -12 9 -28.5t-13.5 -27t-28.5 -9.5t-27 13q-45 53 -89 53q-28 0 -56 -20q-85 -59 -141 -213q-46 -126 -45 -193q0 -15 2 -28q12 10 28 27q82 88 201 252q27 37 37 51q16 20 42.5 13t29.5 -36 q4 -100 16 -178t24.5 -118t29 -66.5t25.5 -33.5t19 -7q4 -1 9 -1q27 0 64 28q44 34 112.5 131.5t140.5 246.5q8 16 23.5 21.5t29.5 -1.5t19.5 -22.5t-0.5 -30.5q-219 -452 -391 -452h-1q-10 0 -22 2q-137 27 -170 369q-100 -135 -178 -222q-53 -56 -95 -56q-13 0 -24 5 q-47 17 -47 100v7z" />
<glyph unicode="&#xe1;" horiz-adv-x="761" d="M-51 156q0 74 32.5 176t96 198.5t137.5 120.5q29 10 56 10q77 0 145 -81q10 -12 9 -28.5t-13.5 -27t-28.5 -9.5t-27 13q-45 53 -89 53q-28 0 -56 -20q-85 -59 -141 -213q-46 -126 -45 -193q0 -15 2 -28q12 10 28 27q82 88 201 252q27 37 37 51q16 20 42.5 13t29.5 -36 q4 -100 16 -178t24.5 -118t29 -66.5t25.5 -33.5t19 -7q4 -1 9 -1q27 0 64 28q44 34 112.5 131.5t140.5 246.5q8 16 23.5 21.5t29.5 -1.5t19.5 -22.5t-0.5 -30.5q-219 -452 -391 -452h-1q-10 0 -22 2q-137 27 -170 369q-100 -135 -178 -222q-53 -56 -95 -56q-13 0 -24 5 q-47 17 -47 100v7z" />
<glyph unicode="&#xe0;" horiz-adv-x="761" d="M-51 156q0 74 32.5 176t96 198.5t137.5 120.5q29 10 56 10q77 0 145 -81q10 -12 9 -28.5t-13.5 -27t-28.5 -9.5t-27 13q-45 53 -89 53q-28 0 -56 -20q-85 -59 -141 -213q-46 -126 -45 -193q0 -15 2 -28q12 10 28 27q82 88 201 252q27 37 37 51q16 20 42.5 13t29.5 -36 q4 -100 16 -178t24.5 -118t29 -66.5t25.5 -33.5t19 -7q4 -1 9 -1q27 0 64 28q44 34 112.5 131.5t140.5 246.5q8 16 23.5 21.5t29.5 -1.5t19.5 -22.5t-0.5 -30.5q-219 -452 -391 -452h-1q-10 0 -22 2q-137 27 -170 369q-100 -135 -178 -222q-53 -56 -95 -56q-13 0 -24 5 q-47 17 -47 100v7z" />
<glyph unicode="b" horiz-adv-x="770" d="M-135 -358q2 47 99 487t196 860q0 6 2 12q35 147 57 238q70 283 161 482.5t157 211.5q35 6 53 -20q14 -19 14 -58q0 -83 -66 -257q-96 -256 -300 -625q-111 -465 -209 -920q57 119 110 193q142 197 231 197q12 0 23 -3q61 -18 64 -108q0 -43 -13.5 -97.5t-44 -120 t-73.5 -124.5q319 188 485 456q8 14 23.5 17.5t30 -4.5t18.5 -24.5t-6 -28.5q-82 -133 -195 -245t-231.5 -186.5t-214 -121t-191.5 -78.5q-29 -10 -45 16q-33 -82 -57 -162q-8 -27 -39 -26h-6q-14 2 -23.5 13t-9.5 26zM23 -150q74 27 138 79.5t106 113.5t67.5 119.5 t36.5 109.5q7 36 7 59t-7 34q-8 0 -21.5 -7.5t-54.5 -47.5t-90 -109q-88 -124 -182 -351zM313 1286q178 361 209 535q-111 -164 -209 -535z" />
<glyph unicode="c" horiz-adv-x="606" d="M-62 134q6 110 44 216q41 112 103 174q47 47 91 47q14 0 27 -4q12 -4 22.5 -11t24.5 -28.5t14 -56.5t-12 -90q-4 -16 -17.5 -24.5t-30 -4.5t-24.5 18.5t-4 28.5q11 41 11 65q0 22 -9 30q-8 0 -25.5 -12.5t-46 -54.5t-51.5 -105q-37 -96 -40 -196v-17q0 -87 28 -138 q20 -39 59 -47q11 -2 22 -2q26 0 57 12q44 18 94.5 66.5t91.5 94.5t95 123t82.5 119t78.5 118q8 12 24.5 16t29.5 -5t17 -25.5t-6 -28.5q-68 -104 -118 -176t-113.5 -153t-115.5 -129t-109.5 -80t-108.5 -32q-18 0 -37 4q-74 16 -113 86q-36 81 -36 176q0 13 1 26z" />
<glyph unicode="d" horiz-adv-x="641" d="M-56 136q2 120 60 243q68 143 160 211q70 51 128 51q18 1 36 -5q72 -22 82 -108q10 16 18 33q109 514 218.5 826.5t178.5 334.5q29 11 49 -12q18 -18 18 -65q0 -96 -71 -312q-8 -25 -22 -67q-45 -137 -74 -219t-90.5 -229.5t-132.5 -282.5q-59 -283 -113 -603 q-92 -547 -98 -741q16 6 33 0q14 -8 19 -23.5t-1 -29.5q-37 -78 -74 -78q-8 0 -16 2q-23 8 -32 30q-8 19 -8 76v14q1 68 17 202q25 213 82 561q33 190 68 370q-63 -102 -135 -204q-106 -154 -190 -154q-24 0 -46 12q-64 45 -64 158v9zM26 91q6 -44 23 -52q6 -4 19.5 1t44 35 t67.5 81q96 139 176 278q-31 10 -24 41q1 14 1 26q0 52 -28 60h-12q-43 0 -105.5 -56t-111.5 -161q-32 -68 -44 -138q-7 -45 -8 -80q0 -19 2 -35zM590 913q57 139 133 375q14 45 22 70q41 125 60 213q-100 -211 -215 -658z" />
<glyph unicode="e" horiz-adv-x="595" d="M-52 203q9 90 46 205v2q57 186 139 294.5t148 110.5h4q44 0 57 -41q5 -14 5 -30q0 -54 -58 -138q-76 -108 -223 -233q-26 -79 -36 -147q-8 -51 -8 -86q0 -12 2 -22q4 -40 14.5 -70t20 -42t19.5 -20q24 -18 54 -18q46 0 104 42q180 127 401 439q10 12 26.5 15t30 -6 t15.5 -25.5t-7 -29.5q-231 -324 -421 -458q-76 -53 -150 -54q-57 0 -100 31q-25 18 -44.5 49t-33.5 87q-9 34 -9 80q0 30 4 65zM125 535q118 118 141 194q-72 -45 -141 -194z" />
<glyph unicode="&#xea;" horiz-adv-x="595" d="M-52 203q9 90 46 205v2q57 186 139 294.5t148 110.5h4q44 0 57 -41q5 -14 5 -30q0 -54 -58 -138q-76 -108 -223 -233q-26 -79 -36 -147q-8 -51 -8 -86q0 -12 2 -22q4 -40 14.5 -70t20 -42t19.5 -20q24 -18 54 -18q46 0 104 42q180 127 401 439q10 12 26.5 15t30 -6 t15.5 -25.5t-7 -29.5q-231 -324 -421 -458q-76 -53 -150 -54q-57 0 -100 31q-25 18 -44.5 49t-33.5 87q-9 34 -9 80q0 30 4 65zM125 535q118 118 141 194q-72 -45 -141 -194z" />
<glyph unicode="&#xe9;" horiz-adv-x="595" d="M-52 203q9 90 46 205v2q57 186 139 294.5t148 110.5h4q44 0 57 -41q5 -14 5 -30q0 -54 -58 -138q-76 -108 -223 -233q-26 -79 -36 -147q-8 -51 -8 -86q0 -12 2 -22q4 -40 14.5 -70t20 -42t19.5 -20q24 -18 54 -18q46 0 104 42q180 127 401 439q10 12 26.5 15t30 -6 t15.5 -25.5t-7 -29.5q-231 -324 -421 -458q-76 -53 -150 -54q-57 0 -100 31q-25 18 -44.5 49t-33.5 87q-9 34 -9 80q0 30 4 65zM125 535q118 118 141 194q-72 -45 -141 -194z" />
<glyph unicode="&#xe8;" horiz-adv-x="595" d="M-52 203q9 90 46 205v2q57 186 139 294.5t148 110.5h4q44 0 57 -41q5 -14 5 -30q0 -54 -58 -138q-76 -108 -223 -233q-26 -79 -36 -147q-8 -51 -8 -86q0 -12 2 -22q4 -40 14.5 -70t20 -42t19.5 -20q24 -18 54 -18q46 0 104 42q180 127 401 439q10 12 26.5 15t30 -6 t15.5 -25.5t-7 -29.5q-231 -324 -421 -458q-76 -53 -150 -54q-57 0 -100 31q-25 18 -44.5 49t-33.5 87q-9 34 -9 80q0 30 4 65zM125 535q118 118 141 194q-72 -45 -141 -194z" />
<glyph unicode="f" horiz-adv-x="464" d="M-294 -1356q0 49 28 226q37 221 112 577q100 489 220 979q-70 -6 -164 -14h-4q-10 0 -18.5 5t-13.5 13t-7 19q0 16 10 28t27 15q115 8 188 14q53 213 98 387q18 72 42 148.5t63 184t84 178.5t86 77q6 1 11 1q27 0 44 -26q16 -24 16 -68q0 -88 -66 -256 q-100 -249 -267 -516q-2 -2 -2 -4q-10 -39 -25 -98q111 11 248 29q16 2 29.5 -8.5t15.5 -26.5t-8.5 -28.5t-26.5 -14.5q-150 -20 -279 -33q-119 -489 -221 -985t-133 -709h6q14 -6 21.5 -21t1.5 -30q-12 -35 -19.5 -52t-21.5 -33.5t-31 -16.5q-6 0 -12 2q-32 8 -32 57z M262 889q164 307 184 483q-90 -135 -184 -483z" />
<glyph unicode="g" horiz-adv-x="843" d="M-508 -1249q29 262 178 536q219 395 604 733q29 174 54 365q-66 -98 -121 -172q-74 -97 -130 -97q-9 0 -18 3q-49 14 -57 90q-1 13 -1 27q0 65 23 158q27 114 90.5 224.5t139.5 147.5q39 20 77 20q64 0 126 -55q12 -12 13 -27.5t-10 -27.5t-27.5 -13t-29.5 9 q-37 34 -74 34t-75 -34q-86 -78 -137 -247q-38 -125 -38 -189q0 -22 5 -37q23 14 59 61q131 172 211 313q16 27 47 18t27 -42q-29 -236 -61 -451q190 156 518 367q14 10 29.5 6t24.5 -17.5t6 -29.5t-17 -25q-369 -240 -580 -419q-129 -778 -301 -1184t-336 -451 q-23 -6 -43 -6q-66 0 -112 57q-69 87 -69 257q0 46 5 98zM-434 -1340.5q0 -76.5 14 -130t37 -83.5q23 -28 53 -28q9 0 19 3q55 14 119.5 98t140.5 246t156.5 455t148.5 674q-324 -299 -514 -646q-61 -111 -101 -221t-56.5 -200.5t-16.5 -167z" />
<glyph unicode="h" horiz-adv-x="882" d="M-133 -449q4 84 107.5 540t170 733.5t103.5 424.5q70 283 161 482.5t156 212.5q35 6 53 -21q14 -19 14 -58q0 -84 -66 -259q-97 -256 -302 -627q-158 -649 -244 -1042q90 189 178 301q81 102 150 103q6 0 12 -1q92 -12 103 -193q10 -137 49 -147q6 -2 17.5 0t46 24.5 t75.5 66.5t112 138.5t152 227.5q8 12 24.5 16t30 -4t17.5 -24.5t-4 -30.5q-68 -109 -129 -194t-105 -137t-85 -88t-66 -51.5t-49.5 -20.5t-33.5 -4t-21 3q-96 25 -109 219q-2 43 -10 73t-14.5 39t-10.5 9h-2q-16 0 -45 -25.5t-69.5 -83t-86 -139.5t-99.5 -206.5t-105 -270.5 q-8 -27 -37 -26h-8q-10 2 -17.5 8t-11.5 15t-2 17zM340 1294q180 363 211 535q-113 -162 -211 -535z" />
<glyph unicode="i" horiz-adv-x="518" d="M49 461q4 16 18.5 24.5t30 4t23.5 -18.5t4 -29q-25 -98 -36 -172q-10 -68 -10 -107v-7q1 -39 8 -64.5t12 -31t10 -7.5q8 -3 18 -3q56 0 175 110q140 130 243 295q10 12 25.5 16t29.5 -4t17.5 -24.5t-5.5 -30.5q-57 -90 -138 -187.5t-182.5 -175.5t-170.5 -78q-25 0 -43 9 q-77 33 -77 179q0 116 48 302zM80 680q20 37 53 49q14 4 25 4q29 0 37 -31q2 -8 2 -15q0 -30 -33 -46q-20 -10 -47 -10q-43 3 -43 28q0 9 6 21z" />
<glyph unicode="&#xee;" horiz-adv-x="518" d="M49 461q4 16 18.5 24.5t30 4t23.5 -18.5t4 -29q-25 -98 -36 -172q-10 -68 -10 -107v-7q1 -39 8 -64.5t12 -31t10 -7.5q8 -3 18 -3q56 0 175 110q140 130 243 295q10 12 25.5 16t29.5 -4t17.5 -24.5t-5.5 -30.5q-57 -90 -138 -187.5t-182.5 -175.5t-170.5 -78q-25 0 -43 9 q-77 33 -77 179q0 116 48 302zM80 680q20 37 53 49q14 4 25 4q29 0 37 -31q2 -8 2 -15q0 -30 -33 -46q-20 -10 -47 -10q-43 3 -43 28q0 9 6 21z" />
<glyph unicode="&#xed;" horiz-adv-x="518" d="M49 461q4 16 18.5 24.5t30 4t23.5 -18.5t4 -29q-25 -98 -36 -172q-10 -68 -10 -107v-7q1 -39 8 -64.5t12 -31t10 -7.5q8 -3 18 -3q56 0 175 110q140 130 243 295q10 12 25.5 16t29.5 -4t17.5 -24.5t-5.5 -30.5q-57 -90 -138 -187.5t-182.5 -175.5t-170.5 -78q-25 0 -43 9 q-77 33 -77 179q0 116 48 302zM80 680q20 37 53 49q14 4 25 4q29 0 37 -31q2 -8 2 -15q0 -30 -33 -46q-20 -10 -47 -10q-43 3 -43 28q0 9 6 21z" />
<glyph unicode="&#xec;" horiz-adv-x="518" d="M49 461q4 16 18.5 24.5t30 4t23.5 -18.5t4 -29q-25 -98 -36 -172q-10 -68 -10 -107v-7q1 -39 8 -64.5t12 -31t10 -7.5q8 -3 18 -3q56 0 175 110q140 130 243 295q10 12 25.5 16t29.5 -4t17.5 -24.5t-5.5 -30.5q-57 -90 -138 -187.5t-182.5 -175.5t-170.5 -78q-25 0 -43 9 q-77 33 -77 179q0 116 48 302zM80 680q20 37 53 49q14 4 25 4q29 0 37 -31q2 -8 2 -15q0 -30 -33 -46q-20 -10 -47 -10q-43 3 -43 28q0 9 6 21z" />
<glyph unicode="j" horiz-adv-x="548" d="M-730 -1543v27q0 162 54 374q58 231 170 448q193 371 471 657q47 279 90 590q2 14 14.5 24.5t29 8.5t26.5 -15.5t8 -29.5q-35 -254 -72 -486q211 197 529 404q12 8 28.5 5t25.5 -16.5t5 -30t-16 -24.5q-362 -236 -594 -469q-121 -721 -266 -1173q-168 -530 -328 -576 q-16 -4 -31 -4q-47 0 -82 43q-57 72 -62 243zM-645 -1606q10 -94 39 -131q14 -16 28 -12q10 4 22.5 12t41.5 42t57.5 85t70.5 152.5t85 232.5q129 403 242 1045q-219 -246 -377 -551q-88 -170 -141.5 -345t-65.5 -305q-7 -71 -7 -131q0 -51 5 -94zM72 897q18 37 55 49 q14 5 25 5q27 0 34 -29q2 -8 2 -16q0 -29 -32 -46q-20 -10 -47 -8q-43 1 -43 25q0 8 6 20z" />
<glyph unicode="k" horiz-adv-x="798" d="M-166 -442q0 45 105.5 520t207.5 913q2 4 3 10q37 154 57 240q70 283 161 481.5t158 212.5q33 6 54 -22q14 -16 14 -52q0 -25 -7 -59q-16 -84 -61 -204.5t-122.5 -281.5t-178.5 -343q-100 -424 -200 -881q49 109 100 189q113 174 196 174h5q43 -4 59 -45q10 -22 10 -50 t-10 -64q-20 -71 -70 -136q-39 -49 -120 -121q-18 -16 -25 -23q14 -53 53 -61q9 -2 18 -2q91 -1 267 139q194 154 319 357q8 14 24.5 17t30 -5t17.5 -24.5t-4 -28.5q-115 -186 -315.5 -359.5t-339.5 -173.5q-16 0 -31 2q-98 18 -121 141q-4 18 7 34t48 46q76 66 111 111 q25 33 41 68.5t20 59t0 38.5q-47 -18 -122 -137q-55 -86 -111.5 -215t-85.5 -215.5t-76 -235.5l-10 -29q-8 -27 -37 -26h-6q-10 2 -17.5 7t-11.5 14t-4 20zM301 1286q178 363 209 535q-111 -162 -209 -535z" />
<glyph unicode="l" horiz-adv-x="311" d="M-205 -894v6q0 51 29 220q37 221 110 578q170 811 338 1446q14 53 30.5 111.5t47.5 146.5t60.5 154.5t66.5 118.5t70 57q6 1 11 1q27 0 44 -26q14 -21 14 -62q0 -81 -56 -238q-85 -237 -275 -540l-4 -4q-129 -516 -247 -1076t-151 -798h4q16 -6 23.5 -20.5t1.5 -30.5 q-12 -35 -19 -52.5t-21.5 -33.5t-31.5 -16q-6 0 -14 2q-29 10 -31 56zM352 1350q164 309 185 485q-91 -135 -185 -485z" />
<glyph unicode="m" horiz-adv-x="1067" d="M-77 -39q3 29 13.5 84t30.5 133q66 262 158 469q6 16 21.5 22.5t31 -0.5t20.5 -22.5t-1 -30.5q-102 -231 -168 -514q123 217 254 400q22 31 47 31q8 0 16 -3q25 -8 29 -34q3 -17 3 -56q0 -20 -1 -45q-2 -63 -2 -104q0 -109 22 -154q12 12 29 41q10 20 45 92 q84 176 121 230q32 48 66 48q5 0 10 -1q43 -10 43 -90v-12q0 -190 65 -216q9 -3 19 -3q39 0 106 41q84 52 199 188q10 12 26.5 13t28.5 -9t13 -26.5t-9 -29.5q-218 -256 -360 -256q-27 0 -51 9q-109 41 -117 260q-29 -53 -90 -178q-35 -76 -47 -97q-46 -88 -98 -88 q-8 0 -17 2q-82 20 -82 226v10q0 41 2 96q-135 -193 -276 -463q-25 -47 -54 -47q-10 0 -19 5t-14.5 9.5t-10.5 22.5t-2 47z" />
<glyph unicode="n" horiz-adv-x="731" d="M-90 -68q20 168 153 625q14 47 21 72q6 16 20.5 23t30 3t23.5 -18t2 -31q-4 -14 -21 -71q-45 -158 -69 -246q66 123 114 170q47 45 91 45h4q53 -2 84.5 -55.5t60.5 -145.5q45 -158 96 -164q3 0 6 -1q22 0 54 29q36 32 77 92t62.5 95t50.5 88q8 14 24.5 18.5t31 -3.5 t18.5 -23.5t-4 -30.5q-70 -123 -121 -194.5t-105 -112.5q-47 -36 -91 -36q-7 0 -13 1q-102 12 -162 222q-43 141 -74 141q-6 2 -17 -5t-35.5 -37t-54.5 -81t-78 -151.5t-103 -237.5q-10 -25 -37 -25q-4 0 -8 2q-35 8 -31 43z" />
<glyph unicode="o" horiz-adv-x="655" d="M-14 170q-12 43 -12 84q0 56 21 108q36 92 103 134q14 10 33 4q18 46 52 70q27 20 57 19q7 0 14 -1q20 -4 37.5 -17.5t35 -42t25.5 -88.5q5 -40 5 -89q0 -25 -1 -52q-2 -20 -6 -41q18 -4 36 -4q63 0 137 43q95 55 163 143q10 12 26.5 14.5t30 -8t15.5 -27t-8 -28.5 q-84 -109 -201 -170q-86 -45 -164 -45q-28 0 -55 6q-29 -70 -80 -109.5t-107 -39.5h-2q-55 2 -97 37.5t-58 99.5zM60 308q-8 -32 -8 -61t9 -54q23 -80 82 -80q29 0 61 26.5t52 71.5q-133 74 -139 201q-41 -38 -57 -104zM201 461q-5 -18 -5 -37q0 -25 9 -51q16 -45 71 -82v12 q2 28 2 52q0 18 -1 33q-3 36 -7 58.5t-10 37t-11 20.5t-7 6h-2q-8 0 -20.5 -13.5t-18.5 -35.5z" />
<glyph unicode="&#xf5;" horiz-adv-x="655" d="M-14 170q-12 43 -12 84q0 56 21 108q36 92 103 134q14 10 33 4q18 46 52 70q27 20 57 19q7 0 14 -1q20 -4 37.5 -17.5t35 -42t25.5 -88.5q5 -40 5 -89q0 -25 -1 -52q-2 -20 -6 -41q18 -4 36 -4q63 0 137 43q95 55 163 143q10 12 26.5 14.5t30 -8t15.5 -27t-8 -28.5 q-84 -109 -201 -170q-86 -45 -164 -45q-28 0 -55 6q-29 -70 -80 -109.5t-107 -39.5h-2q-55 2 -97 37.5t-58 99.5zM60 308q-8 -32 -8 -61t9 -54q23 -80 82 -80q29 0 61 26.5t52 71.5q-133 74 -139 201q-41 -38 -57 -104zM201 461q-5 -18 -5 -37q0 -25 9 -51q16 -45 71 -82v12 q2 28 2 52q0 18 -1 33q-3 36 -7 58.5t-10 37t-11 20.5t-7 6h-2q-8 0 -20.5 -13.5t-18.5 -35.5z" />
<glyph unicode="&#xf4;" horiz-adv-x="655" d="M-14 170q-12 43 -12 84q0 56 21 108q36 92 103 134q14 10 33 4q18 46 52 70q27 20 57 19q7 0 14 -1q20 -4 37.5 -17.5t35 -42t25.5 -88.5q5 -40 5 -89q0 -25 -1 -52q-2 -20 -6 -41q18 -4 36 -4q63 0 137 43q95 55 163 143q10 12 26.5 14.5t30 -8t15.5 -27t-8 -28.5 q-84 -109 -201 -170q-86 -45 -164 -45q-28 0 -55 6q-29 -70 -80 -109.5t-107 -39.5h-2q-55 2 -97 37.5t-58 99.5zM60 308q-8 -32 -8 -61t9 -54q23 -80 82 -80q29 0 61 26.5t52 71.5q-133 74 -139 201q-41 -38 -57 -104zM201 461q-5 -18 -5 -37q0 -25 9 -51q16 -45 71 -82v12 q2 28 2 52q0 18 -1 33q-3 36 -7 58.5t-10 37t-11 20.5t-7 6h-2q-8 0 -20.5 -13.5t-18.5 -35.5z" />
<glyph unicode="&#xf3;" horiz-adv-x="655" d="M-14 170q-12 43 -12 84q0 56 21 108q36 92 103 134q14 10 33 4q18 46 52 70q27 20 57 19q7 0 14 -1q20 -4 37.5 -17.5t35 -42t25.5 -88.5q5 -40 5 -89q0 -25 -1 -52q-2 -20 -6 -41q18 -4 36 -4q63 0 137 43q95 55 163 143q10 12 26.5 14.5t30 -8t15.5 -27t-8 -28.5 q-84 -109 -201 -170q-86 -45 -164 -45q-28 0 -55 6q-29 -70 -80 -109.5t-107 -39.5h-2q-55 2 -97 37.5t-58 99.5zM60 308q-8 -32 -8 -61t9 -54q23 -80 82 -80q29 0 61 26.5t52 71.5q-133 74 -139 201q-41 -38 -57 -104zM201 461q-5 -18 -5 -37q0 -25 9 -51q16 -45 71 -82v12 q2 28 2 52q0 18 -1 33q-3 36 -7 58.5t-10 37t-11 20.5t-7 6h-2q-8 0 -20.5 -13.5t-18.5 -35.5z" />
<glyph unicode="&#xf2;" horiz-adv-x="655" d="M-14 170q-12 43 -12 84q0 56 21 108q36 92 103 134q14 10 33 4q18 46 52 70q27 20 57 19q7 0 14 -1q20 -4 37.5 -17.5t35 -42t25.5 -88.5q5 -40 5 -89q0 -25 -1 -52q-2 -20 -6 -41q18 -4 36 -4q63 0 137 43q95 55 163 143q10 12 26.5 14.5t30 -8t15.5 -27t-8 -28.5 q-84 -109 -201 -170q-86 -45 -164 -45q-28 0 -55 6q-29 -70 -80 -109.5t-107 -39.5h-2q-55 2 -97 37.5t-58 99.5zM60 308q-8 -32 -8 -61t9 -54q23 -80 82 -80q29 0 61 26.5t52 71.5q-133 74 -139 201q-41 -38 -57 -104zM201 461q-5 -18 -5 -37q0 -25 9 -51q16 -45 71 -82v12 q2 28 2 52q0 18 -1 33q-3 36 -7 58.5t-10 37t-11 20.5t-7 6h-2q-8 0 -20.5 -13.5t-18.5 -35.5z" />
<glyph unicode="p" horiz-adv-x="618" d="M-281 -1413q53 358 236 1384q-25 -8 -49 -14q-16 -6 -30.5 2t-18.5 24.5t4 31t24 18.5q41 10 84 28q14 72 39 213q106 598 109 625q0 16 11 27.5t26 11.5q16 2 28.5 -9t14.5 -28q0 -16 -97 -557q31 86 63 155.5t59.5 114.5t56 76t51 46.5t44 22.5t37 6t27.5 -5 q61 -18 82 -97q9 -35 9 -74q0 -51 -15 -110q-49 -180 -242 -334q-80 -66 -176 -114q-74 -301 -165 -748.5t-134 -707.5q-6 -33 -39 -33h-6q-10 2 -18 8t-12.5 16.5t-2.5 20.5zM123 135q117 72 201.5 166.5t113.5 198.5q12 53 12 93q0 20 -3 36q-9 49 -31 55q-2 2 -6 2 q-12 0 -27.5 -9t-40.5 -35t-50.5 -65.5t-57 -109.5t-62.5 -160q-20 -61 -49 -172z" />
<glyph unicode="q" horiz-adv-x="645" d="M-58 106q-3 22 -3 44q0 31 7 64q11 58 38 118q59 133 172 211q74 52 165 52q46 0 95 -13q16 -4 24.5 -17.5t3.5 -29.5q-2 -10 -9 -18.5t-17 -10.5t-21 0q-33 11 -64 11q-15 0 -30 -3q-45 -8 -79 -22.5t-63.5 -42t-47 -51t-33.5 -50.5q-31 -51 -48 -108q-15 -53 -15 -84 q0 -32 8 -54q18 6 53 43q78 84 194 244q31 41 41 57q20 25 48 11.5t22 -43.5q-90 -457 -301 -1764q74 211 270 840q254 815 310 936q8 14 23 20.5t29.5 -1t20.5 -22.5t-2 -30q-53 -117 -305 -925q-166 -530 -233 -732q-53 -162 -86 -243q-25 -61 -42.5 -87t-41.5 -26h-11 q-31 8 -36 51q-2 13 -2 28q0 32 8 68q8 63 117.5 724t172.5 1009q-74 -98 -139 -170q-62 -66 -111 -66q-23 0 -42 13q-31 20 -40 69z" />
<glyph unicode="r" horiz-adv-x="817" d="M-12 548v6q0 96 73 210q47 74 114 129q43 36 78 36q19 0 36 -11q29 -16 34 -54q1 -4 1 -8q0 -40 -37 -134q-41 -106 -137 -276q5 -1 10 0q64 0 198 89q27 18 40.5 25t30.5 15.5t29.5 6.5t24.5 -11q19 -15 19 -44q0 -18 -8 -42q-169 -525 -169 -708q0 -38 7 -62l6 -12 q16 -2 50 26.5t84 90t108.5 147.5t129 211t136.5 266q8 16 23.5 21.5t29.5 -1.5t20.5 -22.5t-1.5 -29.5q-55 -119 -125 -244t-153 -253t-165 -209t-139 -81q-14 0 -27 6q-61 24 -61 149q0 46 8 105q29 207 152 586q-2 0 -3.5 -1t-3.5 -1q-45 -31 -74.5 -47t-79.5 -36 q-46 -19 -87 -19h-8q-46 2 -84 28q-78 55 -80 153zM74 604q-7 -29 -7 -54q0 -36 15 -61q150 260 160 353q-25 -14 -56.5 -47t-65.5 -85.5t-46 -105.5z" />
<glyph unicode="s" horiz-adv-x="825" d="M39 401q4 82 44 147.5t107 106.5q57 35 121 41q13 1 25 1q49 0 92 -19q14 -8 19.5 -23.5t-2 -30t-22.5 -19.5t-30 1q-29 14 -61 14q-48 0 -101 -32q-106 -63 -112 -191v-11q0 -64 43 -150q47 -93 139 -232q39 -59 64 -121q16 20 34 45q57 72 457 537q10 12 26.5 14t29 -9 t14.5 -27.5t-11 -28.5q-397 -463 -454 -535q-35 -45 -68 -88q16 -63 16 -124q1 -51 -11 -101q-24 -108 -69.5 -186t-107.5 -128q-57 -49 -106 -49q-31 0 -52 21q-26 25 -26 70q0 147 270 513q-23 78 -71 152q-102 154 -152 256q-46 94 -45 173v13zM117 -717q18 2 55 32 t74 83q81 123 81 268q0 16 -1 33q-86 -123 -138.5 -219t-63.5 -138t-7 -59z" />
<glyph unicode="t" horiz-adv-x="272" d="M-559 1182q0 10 5 19t14.5 14.5t19.5 5.5q57 0 383 10q203 4 368 8q66 270 117 459q4 16 18.5 24.5t30 4t23.5 -18.5t4 -31q-49 -182 -113 -436q491 13 790 13q75 0 137 -1q314 -4 395.5 -13t95.5 -32q10 -12 8 -28.5t-17 -26.5q-25 -16 -47 2q-54 19 -461 19 q-338 0 -919 -13q-133 -559 -270 -1212q-164 -788 -199 -1084q4 0 8 -2q16 -4 22.5 -19t0.5 -30q-10 -33 -17.5 -48t-22 -30.5t-30.5 -15.5q-6 0 -14 2q-27 8 -32 43q-2 12 -2 26q0 29 7 68q8 86 37 248q51 307 153 799q137 664 277 1253q-139 -2 -346 -8q-328 -8 -385 -8 q-16 0 -27.5 11t-11.5 28z" />
<glyph unicode="u" horiz-adv-x="733" d="M-25 236q5 114 66 221q8 14 24.5 18t31 -4t18.5 -23.5t-4 -29.5q-35 -57 -49 -121q-10 -47 -9 -81q0 -12 1 -24q5 -42 20 -55q10 -10 39 15q53 45 133 161q14 18 21 27.5t17.5 23t16.5 17.5t14.5 9t16.5 4t18 -5q27 -10 29 -46v-11q0 -33 -10 -82q-19 -93 -19 -150 q0 -12 1 -22q5 -60 9.5 -73t10.5 -13q6 -4 21.5 3t37 23.5t48 42t60 62.5t68.5 81t76 102.5t80 123.5q8 14 24.5 17.5t29.5 -5t17.5 -25t-4.5 -28.5q-25 -39 -53 -83t-84.5 -119.5t-108 -132t-110.5 -99.5t-102 -43q-16 0 -29 6q-68 26 -68 167q0 62 13 146 q-68 -92 -123 -139q-45 -39 -84 -39q-30 0 -55 23q-50 41 -50 141v19z" />
<glyph unicode="&#xfa;" horiz-adv-x="733" d="M-25 236q5 114 66 221q8 14 24.5 18t31 -4t18.5 -23.5t-4 -29.5q-35 -57 -49 -121q-10 -47 -9 -81q0 -12 1 -24q5 -42 20 -55q10 -10 39 15q53 45 133 161q14 18 21 27.5t17.5 23t16.5 17.5t14.5 9t16.5 4t18 -5q27 -10 29 -46v-11q0 -33 -10 -82q-19 -93 -19 -150 q0 -12 1 -22q5 -60 9.5 -73t10.5 -13q6 -4 21.5 3t37 23.5t48 42t60 62.5t68.5 81t76 102.5t80 123.5q8 14 24.5 17.5t29.5 -5t17.5 -25t-4.5 -28.5q-25 -39 -53 -83t-84.5 -119.5t-108 -132t-110.5 -99.5t-102 -43q-16 0 -29 6q-68 26 -68 167q0 62 13 146 q-68 -92 -123 -139q-45 -39 -84 -39q-30 0 -55 23q-50 41 -50 141v19z" />
<glyph unicode="&#xf9;" horiz-adv-x="733" d="M-25 236q5 114 66 221q8 14 24.5 18t31 -4t18.5 -23.5t-4 -29.5q-35 -57 -49 -121q-10 -47 -9 -81q0 -12 1 -24q5 -42 20 -55q10 -10 39 15q53 45 133 161q14 18 21 27.5t17.5 23t16.5 17.5t14.5 9t16.5 4t18 -5q27 -10 29 -46v-11q0 -33 -10 -82q-19 -93 -19 -150 q0 -12 1 -22q5 -60 9.5 -73t10.5 -13q6 -4 21.5 3t37 23.5t48 42t60 62.5t68.5 81t76 102.5t80 123.5q8 14 24.5 17.5t29.5 -5t17.5 -25t-4.5 -28.5q-25 -39 -53 -83t-84.5 -119.5t-108 -132t-110.5 -99.5t-102 -43q-16 0 -29 6q-68 26 -68 167q0 62 13 146 q-68 -92 -123 -139q-45 -39 -84 -39q-30 0 -55 23q-50 41 -50 141v19z" />
<glyph unicode="v" horiz-adv-x="966" d="M-23 -246q-40 40 -40 146q0 212 159 686q4 14 19.5 21t31 2t22.5 -19.5t1 -30.5q-59 -180 -96 -323q-36 -142 -48 -216q-10 -63 -11 -111q0 -7 1 -15q2 -52 6.5 -65t10.5 -17q6 -6 20 0q57 18 143.5 128.5t162 273.5t96.5 308q2 14 13 23.5t26 11.5q33 0 38 -33 q33 -172 154 -202q24 -6 50 -7q46 -1 96 21q78 32 141 106q12 12 27.5 13.5t28.5 -9t14 -27t-9 -28.5q-78 -90 -178 -130q-62 -25 -119 -25q-36 0 -71 10q-104 27 -162 129q-51 -178 -156 -350q-70 -117 -141.5 -194t-128.5 -95q-20 -6 -39 -6q-37 0 -62 24z" />
<glyph unicode="w" horiz-adv-x="1165" d="M-24 114q16 212 114 488q6 14 20.5 21.5t30 2.5t22.5 -20.5t1 -30.5q-68 -187 -94 -343q-20 -122 -19 -193q0 -19 1 -35q7 -72 30 -86q8 -6 39 23q63 59 239 335q14 25 43 17t29 -39q0 -106 17 -191q10 -53 24 -73q41 27 112.5 212t92.5 337q2 14 13 23t26 9q33 2 39 -30 q35 -178 143 -211q21 -6 44 -6q44 0 97 22q80 34 160 115q10 12 26.5 12t28 -11t12.5 -27.5t-12 -28.5q-96 -98 -195 -138q-61 -24 -116 -24q-35 0 -67 10q-96 29 -150 131q-31 -115 -70 -219q-59 -152 -102 -203t-82 -53h-2q-72 0 -100 139q-6 35 -11 82 q-125 -190 -186 -248q-47 -45 -90 -45q-25 0 -45 15q-65 41 -65 195q-1 31 2 66z" />
<glyph unicode="x" horiz-adv-x="552" d="M-177 -221.5q-5 16.5 3 31.5q141 260 278 452q-81 186 -81 286v11q0 16 12 27.5t28.5 10.5t27.5 -13.5t11 -28.5v-9q0 -67 56 -210q168 221 309 305q14 8 30.5 4t24.5 -17.5t4 -29.5t-18 -25q-137 -84 -313 -321q39 -84 79.5 -141.5t75.5 -69.5q25 -8 47 27q8 14 24.5 17 t30 -6t16.5 -25.5t-5 -28.5q-43 -63 -103 -64q-16 0 -32 4q-90 31 -185 213q-123 -174 -247 -407q-12 -20 -35 -21q-10 0 -19 6q-14 6 -19 22.5z" />
<glyph unicode="y" horiz-adv-x="907" d="M-372 -1540v30q0 160 54 372q58 231 168 446q195 371 476 659q31 193 61 404q-63 -96 -119 -162q-62 -77 -121 -77q-26 0 -51 15q-68 41 -72 171v16q0 124 60 268q6 14 21.5 20.5t30 0t21.5 -20.5t1 -31q-55 -149 -55 -242q0 -96 34 -114q5 -3 10 -3q22 0 60 46 q102 123 211 311q16 29 47 17.5t27 -41.5q-35 -256 -72 -486q211 197 528 404q12 8 28.5 5t26 -16.5t5.5 -29.5t-17 -25q-362 -236 -594 -469q-121 -723 -264 -1173q-170 -530 -330 -576q-14 -4 -30 -4q-47 0 -82 41q-57 74 -63 244zM-286 -1604q10 -94 38 -129 q14 -16 29 -12q10 2 22.5 10.5t41 42t57 86t71.5 152.5t84 231q131 410 244 1047q-221 -246 -381 -553q-88 -168 -140 -343t-64 -306q-7 -71 -7 -132q0 -50 5 -94z" />
<glyph unicode="&#xfd;" horiz-adv-x="907" d="M-372 -1540v30q0 160 54 372q58 231 168 446q195 371 476 659q31 193 61 404q-63 -96 -119 -162q-62 -77 -121 -77q-26 0 -51 15q-68 41 -72 171v16q0 124 60 268q6 14 21.5 20.5t30 0t21.5 -20.5t1 -31q-55 -149 -55 -242q0 -96 34 -114q5 -3 10 -3q22 0 60 46 q102 123 211 311q16 29 47 17.5t27 -41.5q-35 -256 -72 -486q211 197 528 404q12 8 28.5 5t26 -16.5t5.5 -29.5t-17 -25q-362 -236 -594 -469q-121 -723 -264 -1173q-170 -530 -330 -576q-14 -4 -30 -4q-47 0 -82 41q-57 74 -63 244zM-286 -1604q10 -94 38 -129 q14 -16 29 -12q10 2 22.5 10.5t41 42t57 86t71.5 152.5t84 231q131 410 244 1047q-221 -246 -381 -553q-88 -168 -140 -343t-64 -306q-7 -71 -7 -132q0 -50 5 -94z" />
<glyph unicode="z" horiz-adv-x="1138" d="M-365 -1411q-14 30 -14 69q1 84 65 210q94 184 308 432q319 365 686 710q15 98 15 171q0 111 -36 159q-20 27 -53 27q-8 0 -16 -2q-100 -14 -213 -89q-14 -8 -21.5 -12t-19.5 -9t-21.5 -3t-19.5 10q-10 10 -14.5 18.5t1 29t13.5 40t31 68.5q23 53 36 88q33 74 52.5 133 t24.5 91t5 54.5t-3 27.5t-3 7q-6 2 -22 -4q-66 -25 -153 -133.5t-128 -239.5q-4 -16 -18.5 -23t-30.5 -2t-23.5 19.5t-3.5 30.5q45 139 152.5 275.5t202.5 154.5q11 2 21 2q40 0 65 -31q23 -29 23 -83q0 -106 -89 -310q-14 -35 -37 -88q-2 -2 -2 -4q-2 -2 -2 -4 q90 51 185 63q15 2 30 3q73 0 115 -60q50 -67 50 -212q0 -37 -3 -79q186 170 418 369q12 10 28.5 9t26.5 -13.5t9 -28.5t-13 -27q-270 -231 -483 -432q-61 -379 -262 -790q-145 -295 -359.5 -481.5t-367.5 -186.5h-5q-94 2 -127 76zM-293 -1378q12 -29 57 -29h5q53 0 131 39 q82 41 172 115.5t184 198t166 270.5q162 330 233 663q-317 -305 -602 -633q-209 -240 -291 -402q-62 -122 -62 -187q1 -20 7 -35z" />
<glyph unicode="{" horiz-adv-x="757" d="M102 -432q4 88 52 334q4 23 7 38t7 34.5t6 35.5q14 80 19 209q2 55 6 77.5t18 35.5q127 113 220 315.5t75 362.5q-23 190 -8.5 301.5t67.5 169.5q76 77 248 65q16 -2 27.5 -14t9.5 -28.5t-14.5 -27t-28.5 -10.5q-135 10 -184 -41q-78 -82 -39 -407q20 -176 -77 -393 t-239 -346q-2 -12 -2 -62q-4 -135 -20 -221q-6 -35 -21 -109q-47 -240 -49 -321q-4 -61 23 -78q37 -25 129 20q14 8 29.5 3t22.5 -19t2 -29.5t-19 -23.5q-76 -37 -133 -37q-41 0 -72 18q-66 43 -62 148z" />
<glyph unicode="|" horiz-adv-x="638" d="M104 -322q70 219 183 613q164 580 313 1046q4 16 19.5 23.5t31 2.5t22.5 -19.5t3 -28.5q-150 -467 -314 -1045q-113 -395 -182 -616q-10 -27 -39 -27q-6 0 -12 2q-14 4 -22.5 19.5t-2.5 29.5z" />
<glyph unicode="}" horiz-adv-x="997" d="M-104 -530.5q0 16.5 12 27.5t29 9h8q84 0 167 80t144 198t111.5 255t78 252t35.5 188q2 27 -4 82q-10 66 -2 96q4 20 76 160q143 276 201 420q41 100 54 166.5t10 80t-7 17.5q-4 2 -13.5 3t-54.5 -15t-110 -59q-14 -8 -30.5 -5.5t-25 17t-5.5 30t18 23.5q201 131 274 64 q23 -20 30 -55.5t-2 -86.5t-28.5 -112.5t-56.5 -145.5t-80 -173t-104 -206q-66 -127 -70 -141q-4 -16 4 -68q8 -63 4 -100q-10 -92 -56 -265t-114 -327q-96 -221 -208.5 -335.5t-235.5 -114.5h-13q-16 0 -26 12t-10 28.5z" />
<glyph unicode="&#xa1;" horiz-adv-x="600" d="M104 -551q86 301 172 701q55 254 95 411q2 14 16.5 23.5t30.5 5.5q10 -4 17 -11.5t10.5 -17.5t0.5 -20q-39 -156 -94 -408q-86 -403 -172 -706q-8 -29 -39 -29q-4 0 -10 2q-16 4 -23.5 18.5t-3.5 30.5zM403.5 717q-10.5 37 28.5 53q14 6 37 4q25 -2 29 -19.5t-8.5 -36 t-30.5 -24.5q-45 -14 -55.5 23z" />
<glyph unicode="&#xa3;" horiz-adv-x="937" d="M104 51q6 33 46 43q27 8 57 0q55 70 108 209q16 39 37 94h-20q-61 0 -121 29q-14 8 -19.5 23.5t2 30t22.5 19.5t32 -1q61 -33 135 -17q16 49 31 88q102 285 153 385.5t109 100.5q51 0 80 -74q4 -14 -2 -29.5t-21.5 -21.5t-31 1t-19.5 21q-4 12 -10 19q-43 -39 -183 -428 q-2 -4 -5 -12.5t-5 -14.5q33 14 53.5 21.5t51 14.5t59.5 4t57 -15q14 -8 20.5 -22.5t-0.5 -30t-22.5 -21.5t-29.5 2q-14 6 -28.5 7t-28 0t-33 -6t-34 -11t-38.5 -17q-39 -16 -64 -24q-31 -84 -53 -144q-53 -139 -108 -213q14 -12 26 -24q43 -45 124 -66.5t176 -7.5t163 72 q12 10 28.5 9t27 -14.5t9.5 -28.5t-14 -28q-115 -96 -282 -96q-86 0 -163 27.5t-124 77.5q-12 12 -27 20q-18 -14 -37 -18q-37 -8 -65 16q-27 20 -19 51z" />
<glyph unicode="&#xa9;" horiz-adv-x="1277" d="M102 197q6 94 50.5 204.5t120 215t170 189.5t213 133t233.5 42q168 -9 244 -156q59 -121 36.5 -289.5t-118.5 -318.5q-70 -104 -165 -179t-212 -114t-244 -39h-47q-141 8 -214 90t-67 222zM168 193q-2 -43 5 -81t29.5 -75t69.5 -59.5t115 -26.5q123 -6 228.5 21.5 t179 78.5t119.5 99.5t83 103.5q86 133 107.5 284.5t-31.5 256.5q-57 115 -186 123h-23q-127 0 -255 -74t-221 -183.5t-153.5 -235.5t-66.5 -232zM453.5 233q-7.5 56 15.5 129q37 106 113 211q86 115 145 103q57 -12 43 -121q-2 -14 -12 -22.5t-23.5 -6.5t-21.5 12.5t-6 24.5 q4 31 0 47q-33 -18 -90.5 -100t-86.5 -168q-16 -59 -14 -93t19 -44q20 -14 69 5.5t121 80.5q25 20 46.5 -5.5t-5.5 -45.5q-127 -106 -211 -107q-33 0 -57 19q-37 25 -44.5 81z" />
<glyph unicode="&#xad;" horiz-adv-x="0" />
<glyph unicode="&#xb1;" horiz-adv-x="854" d="M102 143q-2 16 8.5 29.5t26.5 15.5q31 4 330 2h104.5t12.5 -2t11 -5t8 -8l6 -10t3 -13q0 -14 -11 -26.5t-28 -14.5h-106q-295 2 -322 0q-2 -2 -4 -2q-14 0 -25.5 10t-13.5 24zM250 578q0 16 11 27t28 13q16 0 86 5q72 4 106 6q63 150 70 159q10 14 25.5 18.5t30 -3.5 t18.5 -23.5t-4 -29.5q-6 -10 -52 -117q95 4 144 4q14 0 26.5 -12.5t12.5 -28.5t-12.5 -27.5t-26.5 -11.5q-57 0 -178 -6q-16 -41 -35 -84q-25 -59 -37 -88t-18.5 -39t-13.5 -15.5t-21 -5.5q-16 0 -27.5 11.5t-11.5 27.5q0 10 4 19q4 8 51 121q4 10 11 26.5t12 22.5 q-33 -2 -70 -4q-61 -2 -88 -4h-2q-14 0 -25.5 11t-13.5 28z" />
<glyph unicode="&#xbf;" horiz-adv-x="724" d="M129 -295q47 152 225 520q135 283 140 328q2 16 14 27.5t29 9.5q10 0 18 -6t13 -15.5t3 -19.5q-2 -41 -34.5 -117t-112.5 -242q-174 -360 -219 -507q-16 -59 -21.5 -102.5t-1.5 -58t8 -18.5q6 -2 19.5 0t72 42t138.5 122q12 12 28.5 12.5t27.5 -11t11 -28t-10 -26.5 q-184 -190 -280 -190q-25 0 -45 12q-88 51 -23 268zM528.5 716q-10.5 36 26.5 54q19 6 37 4q25 -2 30 -19.5t-7.5 -36t-30.5 -24.5q-45 -14 -55.5 22z" />
<glyph unicode="&#xc4;" horiz-adv-x="2215" d="M102.5 123q6.5 227 79.5 397q92 209 269.5 280.5t416.5 -1.5q16 -6 23.5 -20.5t2.5 -30t-19.5 -22.5t-30.5 -3q-80 25 -156 31t-159 -10.5t-154.5 -81t-120.5 -173.5q-55 -127 -68.5 -286.5t9 -295.5t68.5 -241.5t104 -140.5q86 -49 188 90q164 219 455 774 q-608 14 -662 25q-16 4 -24.5 17t-5 29.5t16.5 26t30 5.5q45 -10 684 -25q92 176 274 532q119 238 194.5 385.5t148.5 280.5t116 202.5t82 120t64.5 62.5t49.5 4q35 -12 43.5 -55t-0.5 -119q-12 -133 -71 -397q-25 -117 -125 -529q-80 -328 -123 -505q325 -13 350 -29 q12 -10 15.5 -26.5t-7.5 -28.5q-10 -16 -30 -17q-10 0 -17 4q-37 8 -330 19q-98 -418 -159 -709q-125 -580 -125 -741q8 12 18 28q8 14 24.5 18.5t30 -3.5t17.5 -23.5t-4 -30.5q-59 -100 -103 -100q-10 0 -20 4q-25 10 -34 44t-4 129t36 263t91 445.5t153 677.5 q-156 4 -494 12q-4 0 -14 2q-307 -588 -478 -819q-45 -61 -90 -94t-83.5 -37t-65.5 1t-51 19q-106 61 -169 250t-56.5 416zM1137 465q313 -8 485 -14q57 240 127 522q98 412 125 528q80 360 72 463q-33 -33 -91.5 -128t-147.5 -263t-148.5 -283.5t-165.5 -324.5 q-168 -334 -256 -500zM1817 2275q18 33 49 43q47 12 51 -20q6 -37 -35 -57q-20 -11 -47 -9q-41 4 -18 43zM2011 2275q18 33 49 43q47 12 51 -20q6 -37 -34 -57q-20 -10 -45 -9q-43 4 -21 43z" />
<glyph unicode="&#xd6;" horiz-adv-x="1882" d="M129 -473q-88 461 107 1163q29 104 65.5 204.5t80.5 202t96 189.5t110.5 162t125 127t134.5 76q37 12 72 14q115 168 247 221q178 71 334 -74q96 -92 159.5 -256.5t86 -381t-13 -492.5t-134.5 -561q-80 -233 -178 -423t-198.5 -319t-209 -217t-208.5 -129t-195 -41 q-63 0 -118 19q-137 43 -231.5 176t-131.5 340zM182.5 -280.5q12.5 -178.5 57.5 -314.5t114.5 -214t159.5 -104q111 -35 242 14t266 174t268.5 350t235.5 520q92 272 128 536.5t15.5 470.5t-78 362.5t-145.5 240.5q-117 111 -250 57q-94 -37 -182 -153q72 -16 139 -68 q12 -10 14 -26.5t-8 -28.5t-25.5 -14t-29.5 6q-70 55 -139 59q-76 -119 -141.5 -294t-122 -415.5t-96.5 -564t-56 -704.5q0 -16 -12.5 -27.5t-28.5 -10.5t-27.5 12t-9.5 28q29 668 130 1170.5t261 791.5q-154 -59 -303 -304t-248 -599q-78 -283 -109.5 -527.5t-19 -423z M1065 2198q16 31 49 40q45 14 51 -20q6 -35 -35 -55q-20 -11 -47 -9q-43 2 -18 44zM1260 2198q18 31 47 40q47 14 53 -20q6 -35 -35 -55q-20 -11 -47 -9q-41 2 -18 44z" />
<glyph unicode="&#xd7;" horiz-adv-x="643" d="M102.5 331.5q1.5 16.5 14.5 26.5l18 17q90 76 139 119q-63 109 -67 118q-6 16 0 30.5t21.5 21t29.5 0t21 -20.5q6 -10 57 -98q92 76 139 114q14 10 30.5 8.5t26 -15t7.5 -30t-15 -26.5q-49 -37 -147 -121q18 -33 47 -80q49 -82 49 -94q0 -16 -12 -27.5t-29 -11.5 q-23 0 -35 23q-2 4 -41 71q-37 59 -41 68q-47 -41 -129 -109l-18 -16q-12 -10 -27 -10q-18 0 -28 14q-12 12 -10.5 28.5z" />
<glyph unicode="&#xdc;" horiz-adv-x="1794" d="M113 110.5q49 620.5 313 1466.5q2 10 10 17.5t18.5 9.5t20.5 -2q16 -4 23.5 -18.5t3.5 -31.5q-141 -451 -222 -840.5t-94.5 -659t16 -448.5t101.5 -255q59 -63 146 -41q92 23 205.5 133t246.5 322t269.5 504t285 704.5t285.5 896.5v4q10 27 16 40t20.5 23t32.5 4 q25 -8 29 -34.5t-4 -53.5q-8 -39 -25 -120q-23 -100 -94 -412q-80 -352 -128 -565t-119.5 -555t-114.5 -603.5t-58 -439.5q-4 -55 -2 -99t7.5 -77t14.5 -55.5t16 -33.5t14 -11q8 -2 22 9t41 56t51 117q4 10 12.5 17.5t17.5 9.5t21 -2q14 -6 21.5 -20.5t1.5 -31.5 q-82 -236 -184 -235q-10 0 -21 2q-63 14 -93 110.5t-17 249.5q39 500 368 1948q-240 -707 -493 -1173q-170 -313 -329 -492.5t-298 -214.5q-131 -31 -221 65q-182 195 -133 815.5zM971 2068q18 33 49 43q47 14 51 -20q6 -37 -35 -57q-20 -11 -47 -9q-41 2 -18 43zM1165 2068 q18 33 49 43q47 14 54 -20q4 -37 -37 -57q-20 -11 -45 -9q-43 2 -21 43z" />
<glyph unicode="&#xdf;" horiz-adv-x="1515" d="M103 -776q-5 39 10 145q16 133 61 367q86 444 213 979q51 219 111.5 391t114 271.5t109.5 168t97 95t80 36.5q106 29 184 -55q70 -76 84.5 -213t-32.5 -276q-102 -301 -261 -510q43 16 84 28q279 91 394 -28q106 -109 28 -334q-43 -121 -131 -244t-205.5 -227.5 t-270 -178t-308.5 -92.5q-16 -2 -28.5 7.5t-14.5 25.5q-2 10 2 20.5t12 16.5t19 8q158 20 305 95t253.5 177.5t182.5 210t111 207.5q61 178 -11 252q-82 84 -315 11q-123 -41 -219 -80q-74 -74 -139.5 -111t-94.5 -33q-39 4 -41 41q-8 66 230 168q215 215 344 594 q41 139 28.5 247.5t-63.5 164.5q-47 49 -106 33q-25 -6 -53.5 -24.5t-81 -79t-101.5 -152t-109.5 -260t-111.5 -388.5q-106 -457 -186 -856t-95 -549q10 0 19 -4q14 -8 19 -23.5t-3 -29.5q-31 -66 -65 -65q-6 0 -15 4q-29 10 -34 49z" />
<glyph unicode="&#xe4;" horiz-adv-x="761" d="M-53 113q2 74 34.5 177t96 198.5t137.5 119.5q106 39 199 -71q10 -12 9 -28.5t-13.5 -27t-28.5 -9.5t-27 13q-72 86 -145 33q-82 -59 -138.5 -213.5t-43.5 -220.5q12 10 28 27q78 84 193 243q31 43 43 58q16 23 42.5 14.5t28.5 -35.5q4 -102 16.5 -179t25 -117t29 -66.5 t25.5 -33.5t19 -9q20 -4 52 15t73 64.5t94.5 129.5t108.5 198q6 14 21.5 19.5t30.5 -2t20.5 -22.5t-3.5 -30q-219 -451 -389 -450q-12 0 -24 2q-137 27 -170 369q-100 -137 -178 -222q-68 -74 -119 -51q-49 18 -47 107zM127 844q18 31 49 41q47 14 53 -21t-34 -55 q-23 -10 -48 -10q-43 4 -20 45zM324 844q18 31 47 41q47 14 53 -21q6 -37 -35 -55q-20 -10 -47 -10q-41 4 -18 45z" />
<glyph unicode="&#xf6;" horiz-adv-x="655" d="M-16 98q-27 100 9 191.5t103 132.5q16 10 33 4q18 45 53 69.5t72 18.5q18 -4 35.5 -16.5t35 -42t25.5 -88t4 -140.5q-2 -20 -4 -43q78 -16 172 39.5t164 143.5q10 12 26.5 14t29 -8.5t14.5 -25.5t-8 -30q-84 -109 -201 -171t-219 -37q-29 -66 -77 -107t-108 -41h-4 q-55 0 -96 37t-59 100zM49 870q18 31 47 41q47 14 54 -20q6 -35 -35 -55q-20 -11 -47 -9q-43 2 -19 43zM59.5 233.5q-14.5 -65.5 1.5 -114.5q21 -78 80 -80q29 0 62 26.5t53 73.5q-70 37 -103.5 89.5t-37.5 109.5q-41 -39 -55.5 -104.5zM199 387q-12 -43 5 -88t70 -80 q0 6 2 12q4 74 -4 124.5t-16 65.5t-16 15t-20.5 -13t-20.5 -36zM244 870q18 31 49 41q47 14 51 -20q6 -35 -35 -55q-22 -11 -47 -9q-41 2 -18 43z" />
<glyph unicode="&#xf7;" d="M102 430q-2 16 8.5 28.5t26.5 14.5q39 4 410 2h24q12 0 21.5 -5t14.5 -14.5t5 -19.5q0 -16 -12 -27.5t-29 -11.5h-26q-365 2 -400 -2h-4q-14 0 -25.5 10.5t-13.5 24.5zM227 242q18 33 49 41q47 14 54 -19q4 -37 -35 -57q-23 -8 -47 -8q-43 4 -21 43zM393 641q18 31 49 41 q47 14 51.5 -21.5t-34.5 -56.5q-20 -10 -47 -8q-43 2 -19 45z" />
<glyph unicode="&#xfc;" horiz-adv-x="733" d="M-25 182.5q5 114.5 66 220.5q8 14 23.5 18.5t30 -3.5t18.5 -23.5t-4 -29.5q-33 -57 -46.5 -121t-9.5 -106t21 -56q10 -8 39 16q51 45 133 160q14 20 20 29.5t16.5 22t16.5 17.5t15.5 10t17.5 4t16 -5q27 -10 30 -46t-9 -93q-23 -113 -19 -172.5t9.5 -72.5t9.5 -13 q18 -8 72.5 34.5t142.5 150t178 253.5q8 14 24.5 17t29.5 -5t17.5 -24.5t-4.5 -28.5q-33 -53 -74.5 -113.5t-113.5 -153t-144.5 -151.5t-125.5 -59q-16 0 -29 6q-98 37 -57 313q-66 -92 -121 -139q-80 -68 -141 -16q-53 45 -48 159.5zM106 784q18 31 50 41q47 14 51 -20 q6 -35 -35 -55q-20 -11 -47 -9q-41 2 -19 43zM301 784q18 31 49 41q47 14 51 -20q6 -35 -34 -55q-20 -11 -45 -9q-43 2 -21 43z" />
<glyph unicode="&#x2000;" horiz-adv-x="1197" />
<glyph unicode="&#x2001;" horiz-adv-x="2395" />
<glyph unicode="&#x2002;" horiz-adv-x="1197" />
<glyph unicode="&#x2003;" horiz-adv-x="2395" />
<glyph unicode="&#x2004;" horiz-adv-x="798" />
<glyph unicode="&#x2005;" horiz-adv-x="598" />
<glyph unicode="&#x2006;" horiz-adv-x="399" />
<glyph unicode="&#x2007;" horiz-adv-x="399" />
<glyph unicode="&#x2008;" horiz-adv-x="299" />
<glyph unicode="&#x2009;" horiz-adv-x="479" />
<glyph unicode="&#x200a;" horiz-adv-x="133" />
<glyph unicode="&#x2010;" d="M102 358q0 10 4.5 20.5t12.5 16.5t18 8q27 2 277 0h153q29 7 41 -20q6 -14 1 -29.5t-19 -23.5q-10 -4 -178 -4q-244 2 -267 -2h-4q-14 0 -25.5 10t-13.5 24z" />
<glyph unicode="&#x2011;" d="M102 358q0 10 4.5 20.5t12.5 16.5t18 8q27 2 277 0h153q29 7 41 -20q6 -14 1 -29.5t-19 -23.5q-10 -4 -178 -4q-244 2 -267 -2h-4q-14 0 -25.5 10t-13.5 24z" />
<glyph unicode="&#x2012;" d="M102 358q0 10 4.5 20.5t12.5 16.5t18 8q27 2 277 0h153q29 7 41 -20q6 -14 1 -29.5t-19 -23.5q-10 -4 -178 -4q-244 2 -267 -2h-4q-14 0 -25.5 10t-13.5 24z" />
<glyph unicode="&#x2013;" horiz-adv-x="1227" d="M102 358q0 10 9 20.5t25 16.5t36 8q55 2 557 0h308q58 7 82 -20q12 -14 2 -29.5t-38 -23.5q-20 -4 -358 -4q-490 2 -537 -2h-8q-28 0 -51 10t-27 24z" />
<glyph unicode="&#x2014;" horiz-adv-x="2251" d="M102 358q0 10 18 20.5t50.5 16.5t72.5 8q108 2 1114 0h615q117 7 165 -20q24 -14 4 -29.5t-77 -23.5q-40 -4 -715 -4q-982 2 -1074 -2h-16q-56 0 -102.5 10t-54.5 24z" />
<glyph unicode="&#x202f;" horiz-adv-x="479" />
<glyph unicode="&#x205f;" horiz-adv-x="598" />
<glyph unicode="&#x20ac;" horiz-adv-x="944" d="M102 327.5q0 16.5 11.5 28t27.5 11.5h17h125q4 27 12 53q14 55 39 117q-82 -2 -139 -2q-16 0 -28.5 11t-12.5 27.5t12 27.5t29 11q66 0 176 4q68 131 166 238t190 160q104 59 182 39q14 -6 22.5 -19.5t4.5 -30t-18.5 -24.5t-30.5 -2q-45 12 -121 -33q-76 -43 -159 -131 t-144 -195q94 2 158 3q14 0 26 -12.5t12 -28t-12 -27.5t-26 -12q-72 0 -201 -2q-33 -72 -49 -138q-4 -16 -9 -32q158 2 189 10q29 18 51 -10q8 -12 6 -28.5t-14 -27.5q-31 -20 -244 -24q-8 -117 39 -207q25 -51 94 -72q84 -25 152 15q14 8 30.5 3t24.5 -19.5t3 -30 t-19 -23.5q-55 -33 -129 -33q-43 0 -84 15q-102 29 -142 108q-55 106 -47 244h-30h-86h-15q-16 0 -27.5 11t-11.5 27.5z" />
<glyph unicode="&#x25fc;" horiz-adv-x="645" d="M0 0v645h645v-645h-645z" />
</font>
</defs>
</svg>
